<?xml version="1.0" encoding="utf-8"?>
<!-- Generator: Adobe Illustrator 26.0.1, SVG Export Plug-In . SVG Version: 6.00 Build 0)  -->
<svg version="1.1" id="Layer_1" xmlns="http://www.w3.org/2000/svg" xmlns:xlink="http://www.w3.org/1999/xlink" x="0px" y="0px"
	 viewBox="0 0 136.52 144.52" style="enable-background:new 0 0 136.52 144.52;" xml:space="preserve">
<style type="text/css">
	.st0{fill-rule:evenodd;clip-rule:evenodd;fill:#E94E1B;}
</style>
<g>
	<path class="st0" d="M13.23,96.04c-0.11,0.03-0.26,0.11-0.3,0.21c-0.06,0.18-0.06,0.39-0.1,0.8c-0.24,0.53,0.35,1.02,0.58,1.62
		c0.03,0.07,0.29,0.15,0.34,0.1c0.5-0.43,0.98-0.88,1.44-1.35c0.07-0.07,0.07-0.28,0.02-0.37C14.72,96.38,14.17,95.8,13.23,96.04z"
		/>
	<path class="st0" d="M11.2,97.92c-0.13-0.45-0.49-0.76-1.04-0.69c-0.12,0.04-0.26,0.05-0.35,0.13c-0.03,0.03,0.01,0.23,0.08,0.29
		c0.41,0.37,0.67,0.78,0.55,1.37c-0.05,0.25-0.02,0.52,0.02,0.78c0.01,0.09,0.17,0.21,0.28,0.21c0.5,0.04,1.06-0.63,0.81-1.01
		C11.31,98.64,11.31,98.28,11.2,97.92z"/>
	<path class="st0" d="M17.8,101.99c-0.1-0.13-0.21-0.36-0.43-0.24c-0.16,0.09-0.4,0.38-0.38,0.41c0.34,0.46-0.15,0.81-0.11,1.22
		c0,0.05,0.07,0.1,0.14,0.19c0.14-0.08,0.29-0.17,0.44-0.25C18.2,102.9,18.28,102.6,17.8,101.99z"/>
	<path class="st0" d="M9.1,91.74c-0.07-0.02-0.24,0.1-0.25,0.17c-0.04,0.19-0.01,0.39-0.01,0.59c0.01,0,0.02,0,0.04,0
		c0,0.26-0.02,0.53,0.01,0.79c0.02,0.17,0.14,0.23,0.24,0.17c0.36-0.23,0.56-0.54,0.53-0.98C9.63,92.21,9.37,91.8,9.1,91.74z"/>
	<path class="st0" d="M41.66,118.73c0.01,0-0.01-0.11-0.04-0.15c-0.42-0.56-1.07-0.66-1.62-0.95c-0.12,0.18-0.23,0.27-0.25,0.38
		c-0.01,0.11,0.05,0.31,0.12,0.32c0.16,0.04,0.32,0.09,0.47,0.13c0.07,0.09,0.15,0.17,0.28,0.25c0.05-0.06,0.03-0.12,0-0.17
		c0.24,0.08,0.47,0.17,0.69,0.3C41.39,118.89,41.55,118.78,41.66,118.73z"/>
	<path class="st0" d="M12.18,100.84c-0.22-0.07-0.51,0.14-0.53,0.4c-0.05,0.48,0.08,0.74,0.38,0.76c0.21,0.02,0.71-0.32,0.75-0.51
		C12.83,101.32,12.48,100.95,12.18,100.84z"/>
	<path class="st0" d="M15.99,99.43c-0.02-0.05-0.09-0.08-0.13-0.12c-0.04,0.05-0.12,0.1-0.12,0.15c-0.01,0.51-0.02,1.01-0.01,1.52
		c0,0.05,0.06,0.14,0.1,0.15c0.05,0.01,0.11-0.05,0.16-0.09c0.51-0.41,0.53-0.51,0.21-1.1C16.12,99.78,16.07,99.6,15.99,99.43z"/>
	<path class="st0" d="M13.62,94.65c-0.01-0.05-0.08-0.15-0.12-0.14c-0.3,0.03-0.64,0.52-0.6,0.87c0.01,0.06,0.08,0.11,0.12,0.16
		C13.29,95.5,13.66,94.97,13.62,94.65z"/>
	<path class="st0" d="M13.73,103.05c-0.05,0.17-0.13,0.34,0.08,0.48c0.08-0.05,0.25-0.12,0.24-0.15c-0.05-0.16-0.13-0.31-0.2-0.46
		C13.81,102.97,13.75,103,13.73,103.05z"/>
	<path class="st0" d="M45.74,128.05c0.11,0,0.23-0.09,0.34-0.14c-0.11-0.05-0.22-0.15-0.33-0.15c-0.03,0-0.06,0.02-0.1,0.03
		c-0.19-0.11-0.44-0.22-0.5-0.11c0.1,0.06,0.14,0.13,0.09,0.21c0.14,0.06,0.27,0.1,0.37,0.11C45.65,128.03,45.7,128.05,45.74,128.05
		z"/>
	<path class="st0" d="M23.04,36.77c-0.07,0.04-0.09,0.16-0.12,0.26c0.1-0.03,0.21-0.04,0.26-0.11
		C23.25,36.82,23.15,36.71,23.04,36.77z"/>
	<path class="st0" d="M22.92,37.03c-0.02,0-0.04,0.01-0.05,0.01c0,0.01,0,0.03,0,0.04c0.01,0,0.03,0,0.04-0.01
		C22.91,37.06,22.91,37.04,22.92,37.03z"/>
	<path class="st0" d="M22.61,37.33c0.01,0.05,0.15,0.08,0.25,0.11c0-0.12,0-0.23,0-0.35C22.72,37.1,22.56,37.12,22.61,37.33z"/>
	<path class="st0" d="M22.86,37.43c0,0.02,0,0.03,0,0.05c0.01,0,0.02,0,0.02,0c0.01-0.01,0.01-0.02,0.01-0.03
		C22.89,37.44,22.87,37.44,22.86,37.43z"/>
	<path class="st0" d="M9.37,48.42c-0.01,0-0.02,0.12-0.01,0.13c0.08,0.04,0.17,0.07,0.25,0.1C9.6,48.51,9.59,48.38,9.37,48.42z"/>
	<path class="st0" d="M9.62,48.65c0,0.02,0.01,0.04,0.01,0.07c0.02,0,0.04,0,0.06,0c0-0.02-0.01-0.03-0.01-0.05
		C9.65,48.66,9.64,48.65,9.62,48.65z"/>
	<path class="st0" d="M7.84,51.44c0.05-0.04,0.09-0.09,0.14-0.13c-0.07-0.19-0.17-0.2-0.26-0.01C7.7,51.32,7.79,51.39,7.84,51.44z"
		/>
	<path class="st0" d="M6.58,53.23c-0.05,0.01-0.08,0.15-0.11,0.25c0.11,0,0.23,0,0.34,0C6.79,53.35,6.78,53.19,6.58,53.23z"/>
	<path class="st0" d="M6.07,53.88c-0.02,0-0.04,0-0.05,0l0,0c0,0.02-0.01,0.05-0.01,0.07c0.02-0.01,0.04-0.02,0.06-0.02
		C6.06,53.91,6.07,53.9,6.07,53.88z"/>
	<path class="st0" d="M6.42,53.53c-0.21,0.03-0.33,0.14-0.35,0.35c0.12,0,0.23,0,0.35,0C6.42,53.77,6.42,53.65,6.42,53.53z"/>
	<path class="st0" d="M6.01,53.95c-0.08,0.03-0.16,0.06-0.24,0.1c-0.02,0.01,0,0.12,0,0.12C5.97,54.2,5.99,54.07,6.01,53.95z"/>
	<path class="st0" d="M29.51,115.98c0.04-0.04,0.11-0.07,0.11-0.11c0-0.04-0.06-0.08-0.1-0.12c-0.04,0.06-0.08,0.12-0.12,0.17
		C29.45,115.95,29.48,115.96,29.51,115.98z"/>
	<path class="st0" d="M35.78,117.86c0.06,0.15,0.15,0.18,0.22,0.08c0.02-0.03,0.01-0.08,0.01-0.13c-0.04-0.02-0.09-0.07-0.11-0.06
		C35.85,117.78,35.77,117.84,35.78,117.86z"/>
	<path class="st0" d="M43.01,127.1c0,0.04,0.07,0.09,0.1,0.13c0.05-0.04,0.09-0.08,0.14-0.12c-0.04-0.05-0.08-0.09-0.12-0.14
		C43.09,127.01,43.02,127.05,43.01,127.1z"/>
	<path class="st0" d="M50.47,127.9c-0.03-0.04-0.08-0.13-0.1-0.12c-0.18,0.06-0.19,0.16-0.02,0.25
		C50.36,128.03,50.43,127.95,50.47,127.9z"/>
	<path class="st0" d="M115.17,25.87c0.2-0.33,0.09-0.79-0.37-1.33C114.45,24.82,115.11,25.44,115.17,25.87z"/>
	<path class="st0" d="M69.62,9.29c-0.79-0.07,0.97-0.21,0.02-0.38c0.02,0.28-0.8,0.02-1.14,0.08C68.33,9.29,69.44,9.57,69.62,9.29z"
		/>
	<path class="st0" d="M43.28,11.59c-0.58,0.19-0.64,0.45-0.46,0.73C43.4,12.13,43.46,11.87,43.28,11.59z"/>
	<path class="st0" d="M77.75,9.89c-0.42,0.04-0.71,0.18-1.18,0.16c0.01-0.28-2.82-0.92-3.36-0.47c1.47,0.21,2.81,0.38,4.16,0.63
		c0.68,0.12,1.36,0.24,2.08,0.36c0.71,0.14,1.44,0.29,2.23,0.45c-0.31-0.45-1.06-0.59-1.85-0.7C79.05,10.22,78.23,10.21,77.75,9.89z
		"/>
	<path class="st0" d="M72.62,8.76C71.86,8.69,71.8,9.1,71,8.99c0.29,0.32-0.62,0.42-0.04,0.51C71.25,9.08,72.28,9.16,72.62,8.76z"/>
	<path class="st0" d="M6.53,52.9c0.23-0.93,0.52-1.51,0.73-2.02c-0.16-0.04-0.4,0.51-0.57,1.05C6.52,52.47,6.47,53.01,6.53,52.9z"/>
	<path class="st0" d="M36.88,25.11c0.35-0.24,0.5-0.05,0.89-0.35C37.72,24.47,36.65,24.9,36.88,25.11z"/>
	<path class="st0" d="M80.86,3.99l0.49,0.12c0.07-0.15-0.15-0.23-0.1-0.37c-0.31-0.06-0.56-0.08-0.69,0.01
		C81.05,3.83,81.12,3.9,80.86,3.99z"/>
	<path class="st0" d="M85.02,13.67l0.7,0.24C85.9,13.57,85.07,13.39,85.02,13.67z"/>
	<path class="st0" d="M88.13,10.9c-0.1-0.12-0.89-0.51-1.04-0.37C87.51,10.6,87.83,11.06,88.13,10.9z"/>
	<path class="st0" d="M88.73,14.72c-0.43-0.17-0.79-0.25-1.03-0.19C88.04,14.58,88.73,15.06,88.73,14.72z"/>
	<path class="st0" d="M90.57,14.54c0.18-0.1-0.13-0.29-0.42-0.4c-0.3-0.09-0.57-0.1-0.27,0.1C90.09,14.05,90.19,14.48,90.57,14.54z"
		/>
	<path class="st0" d="M90.84,14.66c0.59,0.32,0.73,0.21,1.09,0.51C92.15,14.93,90.86,14.43,90.84,14.66z"/>
	<path class="st0" d="M97.94,18c-0.29-0.25-0.41-0.25-0.53-0.61c-0.06,0.1-0.27-0.07-0.34-0.01C97.15,17.55,97.62,18.09,97.94,18z"
		/>
	<path class="st0" d="M102.19,12.15c-0.36-0.15-1.06-0.81-1.1-0.46C101.5,11.92,102.04,12.34,102.19,12.15z"/>
	<path class="st0" d="M101.92,22.33c0.44,0.34,0.8,0.68,1.09,1.01C103.09,23.1,102.23,22.37,101.92,22.33z"/>
	<path class="st0" d="M108.18,22.39c0.31,0.26,0.59,0.46,0.81,0.5C108.87,22.56,108.38,22.33,108.18,22.39z"/>
	<path class="st0" d="M109.87,27.22c-0.3-0.31-0.81-0.65-0.66-0.84c0.23,0.14,0.59,0.67,0.73,0.55c-0.52-0.92-1.74-1.16-2.64-1.81
		C107.75,25.82,109.27,26.93,109.87,27.22z"/>
	<path class="st0" d="M120.86,31.77c0.28,0.39,0.58,0.2,0.54,0.01l-0.3-0.4C120.9,31.45,121.14,31.73,120.86,31.77z"/>
	<path class="st0" d="M123.62,39.13c-0.71-0.66-0.49-1.09-1.16-1.74C122.42,37.7,123.25,39.39,123.62,39.13z"/>
	<path class="st0" d="M126.95,45.76c0.13-0.07,0.25-0.08,0.37,0.01c-0.45-0.81-0.57-1.56-1.08-2.18c0.06,0.27-0.49-0.09-0.66-0.58
		c-0.08,0.07-0.23,0.08-0.16,0.26C126,44.23,126.78,44.39,126.95,45.76z"/>
	<path class="st0" d="M127.67,45.26l0.3,0.76C128.29,46.15,127.81,44.91,127.67,45.26z"/>
	<path class="st0" d="M127.46,47.3c0.11-0.08,0.31-0.07,0.26-0.28c-0.45,0.15-0.01-0.9-0.5-0.84
		C127.31,46.57,127.34,46.71,127.46,47.3z"/>
	<path class="st0" d="M122.42,108.11c-0.29,0.17-0.15,0.4-0.55,0.83c0.11,0.33,0.72,0.02,0.66-0.36c-0.13,0.15-0.29,0.26-0.43,0.32
		C122.06,108.74,122.55,108.24,122.42,108.11z"/>
	<path class="st0" d="M97.31,130.65c0.62-0.39,1.26-0.68,1.19-0.91c-0.45,0.47-1.29,0.6-1.57,0.91
		C97.12,130.57,97.3,130.5,97.31,130.65z"/>
	<path class="st0" d="M81.98,136.49c0.37-0.12,0.67-0.27,0.74-0.46C82.29,136.15,81.69,136.22,81.98,136.49z"/>
	<path class="st0" d="M67.39,138.97c-1.23,0.17-1.84,0.11-2.83,0.17c0.82,0.18,1.95,0.31,2.68,0.01
		C66.93,139.12,67.3,139.06,67.39,138.97z"/>
	<path class="st0" d="M65.71,138.42c0.36-0.18,0.98-0.28,1.3-0.53C66.25,137.98,65.86,137.94,65.71,138.42z"/>
	<path class="st0" d="M64.39,138.46c0.34-0.2,0.68,0.31,1.16,0.04c0.02-0.21-0.09-0.35-0.34-0.44c-0.45,0.09-0.88,0.2-1.48,0.2
		c0.14,0.31,0.02,0.21,0.16,0.51c-0.27-0.04-0.45,0.1-0.17,0.16c0.21-0.22,0.98-0.15,1.16-0.38
		C64.69,138.54,64.41,138.56,64.39,138.46z"/>
	<path class="st0" d="M61.7,139.28c0.83,0.52,0.04,0.11,0.67,0.03c0.39-0.05,0.95,0.19,1.18-0.12
		C62.78,139.27,62.41,139.11,61.7,139.28z"/>
	<path class="st0" d="M56.51,138.78c0.56,0.05,2,0.21,1.85,0.08C57.62,138.75,56.93,138.68,56.51,138.78z"/>
	<path class="st0" d="M54.28,137.68c0.41,0.05,0.53-0.08,0.83,0.12C55.31,137.5,54.17,137.32,54.28,137.68z"/>
	<path class="st0" d="M52.7,136.06c0.56,0.01,0.68,0.17,0.98,0.08C53.57,136.05,52.6,135.73,52.7,136.06z"/>
	<path class="st0" d="M50.8,126.52c0.43,0.11,0.86,0.42,1.24,0.31l0.06-0.25C51.54,126.44,51.26,126.57,50.8,126.52z"/>
	<path class="st0" d="M44.27,127.9c0.51,0.06,0.74,0.31,1.02,0.27c-0.1-0.06-0.14-0.13-0.09-0.21
		C44.78,127.81,44.29,127.59,44.27,127.9z"/>
	<path class="st0" d="M41.08,129.41c0.15,0.09,0.19,0.19,0.22,0.29c0.7,0.07,0.92,0.16,1.44,0.17c-0.64-0.3-0.74-0.24-1.14-0.51
		C41.72,129.74,41.1,129.21,41.08,129.41z"/>
	<path class="st0" d="M38.79,118.76c0.42,0.2,0.64,0.41,0.9,0.62c0.28-0.65,0.97,0.72,1.41,0.22c-0.31-0.08-1.01-0.24-0.78-0.56
		c0.52-0.04,1.17,0.79,1.32,0.35c-0.82-0.3-1.35-0.51-1.87-1.04c0.33,0.64-0.48,0.12-0.2,0.67
		C39.31,118.92,38.83,118.42,38.79,118.76z"/>
	<path class="st0" d="M24.19,118.03c-0.38,0.22,0.15,0.6,0.47,0.65C24.26,118.4,24.58,118.3,24.19,118.03z"/>
	<path class="st0" d="M18.98,115.78c0.43,0.13-0.56-1.06-0.86-1.17c-0.01,0.37-0.16,0.69,0,1.12c0.22-0.04,0.39-0.26,0.69-0.01
		c0.04,0.2,1.01,1.39,1.16,1.1C19.71,116.41,19.35,116.15,18.98,115.78z"/>
	<path class="st0" d="M43.19,122.27c0.01,0,0.02,0.01,0.03,0.01c-0.01-0.01-0.02-0.01-0.02-0.02L43.19,122.27z"/>
	<path class="st0" d="M73.01,134.62l0.01,0.07c0.26-0.06,0.52-0.13,0.77-0.19C73.53,134.54,73.27,134.58,73.01,134.62z"/>
	<path class="st0" d="M134.2,70.51c-0.11-1.82-0.22-3.61-0.32-5.34c-0.03-0.43-0.06-0.86-0.09-1.28c-0.06-0.42-0.11-0.84-0.17-1.25
		c-0.12-0.82-0.23-1.62-0.34-2.39c-0.41-0.62-0.34-2.96-1.14-3.49c-0.04-0.93-0.05-1.26-0.45-2.11c0.55,0.24-0.22-1,0.19-0.92
		c-0.37-0.69-0.22-1.67-0.61-1.91c0.19,1.02,0.59,1.59,0.28,2c-0.15-0.97-0.65-1.9-0.46-2.65c-0.29-0.72-1.12-1.95-1.01-2.65
		c-0.39,0.06-0.24-0.87-0.62-1.18c-0.16-0.01-0.11,0.31-0.23,0.1c-0.39-0.54-0.34-1.43-0.71-1.85c0.06,0.19,0.12,0.37-0.04,0.38
		c-0.24-0.45-0.04-0.51-0.28-0.96c-0.28,0.06,0.13,0.72,0.12,1.03c0.37,0.21,1.06,1.98,0.95,2.28c-0.33-0.48-0.59-0.57-0.54-1.2
		c-0.26-0.02-0.04,0.37-0.2,0.44c0.19,0.51,0.45,0.42,0.64,0.98c-0.25-0.02-0.46-0.32-0.7-0.43c0.18,0.56,0.47,0.29,0.66,0.8
		c-0.09,0.2-0.43-0.36-0.32,0.12c0.07,0.05,0.12,0.11,0.15,0.18c-0.05,0.01-0.1,0.02-0.15,0.04c-0.1,0.05-0.21,0.11-0.31,0.16
		c0.02-0.07,0.06-0.12,0.13-0.15c-0.26-0.42-0.21-0.51-0.26-0.95c-0.19,0.08-0.04,0.77,0.07,1.13c-0.22,0.12-0.44,0.23-0.67,0.34
		c-0.02,0.01-0.06-0.02-0.1-0.06c-0.04-0.15-0.09-0.29-0.14-0.44c-0.01-0.17-0.04-0.34-0.2-0.47c-0.19-0.45-0.34-0.89-0.14-1.23
		c-0.53-0.26-1.14-2.31-1.07-2.86c-0.2,0.04-0.43-0.23-0.63-0.55c0-0.12,0-0.23,0.02-0.35c0.02-0.16-0.11-0.22-0.28-0.18
		c-0.12-0.3-0.17-0.54-0.1-0.58c-0.25-0.23-0.49-0.47-0.74-0.73c-0.08-0.2-0.16-0.4-0.25-0.6c0.02,0,0.04,0.01,0.06,0.02
		c-0.31-0.67-0.63-1.29-0.97-1.89c-0.01-0.01-0.01-0.02-0.02-0.03c-0.74-1.37-1.6-2.7-2.55-3.93c-0.33-0.56-0.67-1.15-1.03-1.8
		c-0.11,0.09-0.25,0.03-0.39-0.11c-0.07-0.64-0.73-1.29-1.27-1.87c-0.13-0.44-0.34-0.86-0.61-1.27c0.02-0.03,0.04-0.06,0.08-0.09
		c-0.19-0.25-0.27-0.28-0.33-0.25c-0.08-0.11-0.17-0.21-0.25-0.31c-0.36-0.44-0.76-0.87-1.13-1.3c-0.39-0.42-0.76-0.84-1.05-1.28
		c-0.9-1.41-1.8-2.86-2.82-4.24c-1.06-1.33-2.25-2.58-3.82-3.37c-0.31-0.25-0.33,0.19-0.61-0.01c-0.92-0.86-2.14-1.64-3.37-2.47
		c-1.28-0.75-2.56-1.57-3.78-2.27c-1.7-1.06-3.18-2.41-5.09-3.12c-1.12-0.38-2.13-0.65-3.08-0.73c-0.95-0.07-1.83,0.01-2.66,0.27
		c-1.66-0.7-4.01,0.07-5.5-1.08c-0.37,0.05-0.41,0.43-1.02,0.23c-0.44-0.09-0.39-0.29-0.6-0.43c-0.1,0.46,0.15,0.41-0.2,0.74
		c1.29,0.11,1.85,0.34,3.02,0.22c0.29,0.13,0.36,0.3,0.83,0.41c2.6,0.04,5.7,0.28,8.97,1.38c3.14,1.1,5.75,3.37,8.05,4.02
		c0.42,0.34-0.03,0.6,0.23,0.92c1.26,0.34,1.77,1.49,3.02,2.25c0.86,0.57,1.93,0.65,2.86,1.38c0.92,0.77,1.55,1.53,2.21,2.33
		c0.63,0.82,1.28,1.68,2.23,2.67c0.01,0.06,0.02,0.11,0.03,0.17c-0.46-0.38-0.78-0.74-1.51-1.3c0.1-0.18,0.38,0.26,0.5,0.16
		c-0.53-0.55-1-0.89-1.4-1.24c-0.4-0.36-0.73-0.72-1.02-1.28c-0.22,0.34-0.81-0.34-1.09-0.18c0.62,0.59,1.42,1.33,1.41,1.95
		c-0.61-0.33-0.51-0.88-0.87-0.9c0.38,0.72,0.83,1.11,1.36,1.48c0.53,0.37,1.06,0.78,1.66,1.46c-0.08,0.09-0.18,0.08-0.29,0.06
		c0.31,0.55,0.93,0.92,1.39,1.25c0.1,0.16,0.22,0.31,0.33,0.46c-0.08-0.05-0.16-0.09-0.26-0.11c0.1,0.21,0.23,0.43,0.31,0.64
		c-0.09-0.05-0.17-0.08-0.22-0.07c0.11,0.11,0.21,0.22,0.3,0.33c0.02,0.11,0.03,0.22,0,0.31c-0.8-0.44-1.54-0.65-2.26-0.82
		c-0.11-0.16-0.19-0.32-0.25-0.46l-0.18,0.18c0.11,0.09,0.18,0.17,0.24,0.24c-0.11-0.02-0.21-0.05-0.32-0.07
		c-0.05-0.05-0.1-0.1-0.14-0.16c0.09-0.09-0.08-0.5-0.21-0.22c0.14,0.14,0.17,0.24,0.12,0.32c0,0,0,0,0,0
		c-0.25-0.15-0.54-0.24-0.74-0.44c-0.22-0.22-0.3-0.57-0.48-0.82c-0.25-0.34-1-0.34-1.17,0.05c-0.06,0.13-0.12,0.24-0.19,0.36
		c-0.23-0.12-0.46-0.26-0.69-0.41c0.09-0.42,0.03-0.85-0.16-1.28c-0.03-0.06-0.23-0.07-0.35-0.07c-0.05,0-0.13,0.05-0.15,0.1
		c-0.01,0.02-0.02,0.04-0.03,0.07c-0.35-0.15-0.71-0.35-0.8-0.77c-0.1,0.11-0.15,0.22-0.11,0.36c0.27,0.18,0.53,0.33,0.84,0.64
		c0,0.03,0,0.06,0.01,0.07c0.15,0.15,0.22,0.32,0.28,0.49c-0.71-0.68-1.37-1.25-2.03-1.68c-0.15-0.1-0.3-0.18-0.44-0.27
		c0.02-0.02,0.04-0.04,0.06-0.06c-0.04-0.05-0.08-0.1-0.12-0.15c-0.04,0.04-0.08,0.07-0.11,0.11c-0.47-0.27-0.92-0.48-1.36-0.66
		c-0.16-0.17-0.31-0.32-0.43-0.46c-0.16-0.12-0.34-0.22-0.52-0.33c-2.64-2.41-6.1-4.74-9.89-6.45c-4.14-1.91-8.59-3.07-12.31-3.47
		c-0.85-0.4-1.65-0.7-2.53-0.88c-0.88-0.19-1.81-0.33-2.94-0.33c-1.15-1.03-3.41-1.18-5.61-1.06c-0.55,0.03-1.1,0.06-1.63,0.09
		c-0.53,0.04-1.05,0.09-1.53,0.11c-0.97,0.03-1.81,0-2.43-0.21c-1.05,1.31-4.59,0.99-5.83,0.55c-0.15,0.47-0.67,0.68-1.28,0.76
		c-0.61,0.09-1.32,0.08-1.88,0.04c-0.04-0.18,0.82-0.57-0.08-0.37c-0.43,0.05-0.39,0.25-0.59,0.38c-0.44-0.2-0.99-0.29-1.26-0.63
		c-0.81,0.11-0.86,0.44-1.67,0.55c0.15-0.3,0.23-0.62,0.7-0.83c1.12-0.45,1.37-0.1,2.02-0.08c-0.09-0.31-0.5-0.31,0.11-0.54
		c0.45,0.72,1.36-0.47,2.05,0.12c-0.4,0.1-0.71,0.22-0.82,0.42c0.82-0.29,1.82-0.57,2.54-0.81c-0.23,0.04-0.56,0.02-0.24-0.09
		c-3.97-0.15-7.68,0.57-11.17,1.79c-3.5,1.23-6.79,2.95-10.1,5c-0.52-0.06-1.27,0.29-2,0.58c-1.75,1.48-3.09,2.39-2.79,3.84
		c2.14-1.55,3.74-2.98,7.55-4.9c0.93-0.12,1.75,0.02,2.23,0.6c-2.78,1.84-6.31,2.89-8.7,5.08c-0.34,0.32-0.38,0.57-0.72,0.84
		c-2.07,1.65-3.28,2.27-4.73,3.36c-2.82,2.12-5.19,5.09-7.48,7.74c-0.5,0.59-1.45,0.85-1.51,1.83c0.69-0.68,1.4-1.4,1.99-2.12
		c0.61-0.71,1.16-1.38,1.51-1.98c0.78-0.63,1.83-1.49,2.83-2.45c1.06-0.9,2.09-1.9,3-2.64c0.52-0.29,1.01-0.59,1.48-0.89
		c0.48-0.29,0.93-0.58,1.37-0.88c0.87-0.62,1.72-1.22,2.59-1.85c1.74-1.26,3.63-2.55,6.22-3.67c0.57,0.46,1.1,0.04,1.96-0.31
		c0.28,0.7,1.03,0.68,1.98,0.33c0.44-0.41-0.54-0.32-0.08-0.66c0.63-0.04,1.23-0.04,1.53,0.43c-0.5,0.21-1.03,0.52-1.35,0.47
		c0.42,0.47,1.51-0.1,1.8,0.58c-0.87,0.47-1.68,1.01-2.46,1.54c-0.76,0.57-1.5,1.13-2.22,1.7c-1.44,1.16-2.85,2.27-4.5,3.21
		c-0.61,0.01-1.12-0.25-1.78-0.12c-0.01,0.67,1.31,0.08,1.77,0.44c-0.34,0.5-0.87,0.99-1.35,1.5c-0.14,0.16-0.28,0.32-0.42,0.47
		c-0.03,0.01-0.06,0.02-0.1,0.03c-0.62,0.15-1.34,0.36-1.62,1.01c-0.05,0.11-0.11,0.21-0.16,0.31c-0.47,0.36-0.9,0.72-1.29,1.08
		c-0.02,0.01-0.04,0.02-0.07,0.03c-0.04,0.06-0.09,0.1-0.13,0.15c-0.07,0.07-0.16,0.14-0.23,0.22c-0.5,0.39-1.14,0.41-1.79,0.4
		c-0.23,0-0.35,0.13-0.41,0.34c-0.04,0.12-0.1,0.25-0.18,0.34c-0.2,0.22-0.38,0.61-0.76,0.2c-0.35,0.08-0.53,0.35-0.65,0.64
		c-0.22,0.54-0.52,0.92-1.17,0.88c-0.12-0.01-0.28,0.04-0.36,0.12c-0.45,0.48-1.11,0.78-1.32,1.46c-0.13,0.44-0.49,0.35-0.78,0.4
		c-0.05,0.11-0.09,0.26-0.16,0.29c-0.99,0.3-1.73,0.93-2.43,1.65c-0.37,0.38-0.71,0.75-1.24,0.96c-0.71,0.29-1.55,0.55-1.41,1.64
		c0.02,0.14-0.22,0.32-0.36,0.47c-0.24,0.24-0.48,0.46-0.74,0.68c-0.13,0.11-0.25,0.37-0.46,0.12c-0.14-0.17-0.5-0.27-0.22-0.61
		c0.08-0.1,0.14-0.23,0.14-0.35c0-0.12-0.08-0.24-0.12-0.35c-0.06,0.04-0.11,0.07-0.17,0.11c-0.44,0.33-0.71,0.81-0.68,1.31
		c0.02,0.26,0.09,0.45-0.11,0.65c-0.33,0.32-0.63,0.69-1.16,0.68c-0.64-0.01-0.17,0.35-0.22,0.57c-0.1,0.42-0.34,0.97-0.69,1.15
		c-0.36,0.19-0.61,0.44-0.8,0.72c0.08-0.38,0.17-0.76,0.32-1.13c0.82-2.26,2.8-4.69,3.61-6.93c0.99-0.33,0.2-0.67,1.29-1.49
		c-0.13-0.29-0.29-0.84-0.61-0.68c-0.14-0.04-0.3,0.09-0.46,0.22c-0.48,1.26-1.25,1.99-1.56,3.18c-2.37,2.42-3.72,5.3-4.7,8.41
		c-0.09,0.01-0.17,0.02-0.27,0.01c0.01,0.13,0.08,0.23,0.17,0.29c-0.02,0.07-0.04,0.13-0.06,0.2c-0.09,0.3-0.17,0.6-0.25,0.9
		c-0.17,0.11-0.34,0.21-0.53,0.3c-0.34,0.15-0.57,0.45-0.58,0.92c-0.02,1.34-0.05,1.35-1.26,2.05c-0.1,0.06-0.21,0.09-0.32,0.12
		c-0.03,0.24-0.16,0.38-0.39,0.41c0.03,0.32,0.53,0.62,0,0.97c-0.27,0.18-0.51,0.44-0.68,0.72c-0.07,0.12-0.14,0.23-0.22,0.34
		c0-0.05-0.01-0.09-0.02-0.13C5.51,55.9,5.48,56,5.45,56.09c-0.11,0.13-0.24,0.25-0.43,0.35c-0.38,0.2-0.02,0.57,0.13,0.84
		c-0.62,0.75,0.01,1.86-0.72,2.58c-0.01,0.53,0.08,1.09-0.05,1.59c-0.15,0.57-0.43,1.08-0.34,1.71c0.07,0.46-0.18,0.74-0.62,0.87
		c-0.08,0.02-0.18,0.27-0.14,0.33c0.28,0.43,0.1,0.83-0.01,1.24c0.51,0.63,0.39,1.39,0.36,2.11c-0.03,0.71,0.19,1.47-0.35,2.11
		c-0.1,0.12,0.01,0.4,0.22,0.48c0.25,0.1,0.51,0.16,0.49,0.51c-0.01,0.27,0,0.53,0.02,0.8c0.07,1.1-0.15,2.24,0.4,3.3
		c0.07,0.13-0.04,0.38-0.1,0.56c-0.06,0.16-0.28,0.27-0.08,0.49c0.31,0.33,0.23,0.75,0.2,1.14c-0.06,0.84-0.05,1.22,0.14,1.56
		c0.28,0.51,0.5,1.07,0.99,1.46c0.19,0.15,0.42,0.41,0.43,0.63c0.03,0.61,0.15,1.17,0.44,1.69c-0.12,1.04,0.38,1.9,0.83,2.77
		c0.06,0.11,0.16,0.31,0.2,0.3c0.77-0.2,0.89,0.6,1.36,0.85c0.47,0.25,0.96,0.48,1.45,0.71c0.09,0.22,0.18,0.45,0.27,0.68
		c-0.03,0.07-0.01,0.13,0.07,0.17c0.08,0.22,0.16,0.45,0.24,0.69c-0.28,0.29-0.47,0.56-0.17,1.07c0.32,0.54,0.43,1.21,0.59,1.83
		c0.05,0.21,0.11,0.39,0.3,0.45c0.28,0.09,0.45,0.15,0.26,0.51c-0.14,0.28-0.07,0.71-0.26,0.93c-0.47,0.53,0.15,0.82,0.2,1.23
		c0.02,0.21,0.36,0.19,0.5,0.08c0.37-0.29,0.67-0.65,1.03-0.94c0.35-0.28,0.15-0.48,0.04-0.8c-0.22-0.63-0.09-1.3,0-1.96
		c0.01-0.05,0.08-0.09,0.12-0.14c0.05,0.05,0.13,0.1,0.13,0.15c0.03,0.53,0.55,0.73,0.75,1.13c0.1,0.19-0.39,0.5,0,0.61
		c0.6,0.17,0.84,0.58,1.03,1.1c0.23,0.61,0.45,1.22,0.72,1.81c0.29,0.65,0.64,1.29,0.95,1.93c0.08,0.17,0.23,0.37,0.21,0.53
		c-0.09,0.68,0.23,1.18,0.71,1.55c0.51,0.39,0.51,0.88,0.5,1.43c-0.01,0.33-0.06,0.68,0.22,0.93c0.55,0.49,0.74,1.21,1.13,1.8
		c0.17,0.26,0.21-0.12,0.28-0.25c0.05-0.1,0.14-0.18,0.21-0.27c0.04,0.05,0.12,0.11,0.12,0.16c-0.02,0.78,0.2,1.55-0.22,2.32
		c-0.29,0.53-0.11,1.12,0.23,1.68c0.57,0.93,0.64,1.07,1.53,1.37c0.75,0.25,0.88,0.39,0.9,1.08c0.02,0.6-0.05,1.21,0.53,1.63
		c0.1,0.07,0.23,0.21,0.23,0.32c-0.01,0.93,0.69,1.4,1.25,1.95c0.42,0.41,0.76,0.95,1.4,1.09c0.29,0.61,0.81,1.03,1.21,1.55
		c0.44,0.58,1.33,0.62,1.55,1.42c0.03,0.13,0.19,0.09,0.26-0.08c0.05-0.12,0.04-0.26,0.1-0.38c0.02-0.04,0.05-0.08,0.07-0.12
		c0.31,0.25,0.66,0.5,1,0.74c-0.24-0.24-0.52-0.67-0.81-1.04c0.01-0.03,0.03-0.05,0.03-0.08c0.06-0.32-0.18-0.42-0.46-0.5
		c-0.17-0.05-0.39-0.21-0.45-0.36c-0.04-0.11-0.1-0.2-0.15-0.3c0.03,0,0.07,0.01,0.11,0.02c-0.07-0.09-0.13-0.13-0.19-0.17
		c-0.34-0.53-0.85-0.92-1.2-1.44c-0.25-0.38-0.68-0.76-0.68-1.15c-0.01-0.48,0.34-0.96,0.53-1.44c0.07-0.18,0.13-0.36,0.21-0.54
		c0.02-0.06,0.08-0.11,0.13-0.15c0.22-0.15,0.06-0.07,0.11,0.15c0.11,0.5,0.38,0.62,0.84,0.61c0.43-0.01,0.31,0.2,0.2,0.48
		c-0.17,0.45,0.32,0.23,0.47,0.37c0.15,0.13,0.18,0.26-0.01,0.28c-0.64,0.04-0.46,0.38-0.31,0.73c-0.33,0.31-0.34,0.7-0.24,1.1
		c0.01,0.06,0.06,0.14,0.11,0.16c0.04,0.02,0.12-0.04,0.16-0.08c0.14-0.14,0.35-0.27,0.39-0.44c0.19-0.76,0.65-1.05,1.42-1.05
		c0.29,0.15,0.58,0.23,0.81,0.16c-0.08,0.18-0.12,0.35-0.06,0.54c-0.05-0.03-0.08-0.05-0.09-0.06c0.04,0.05,0.09,0.09,0.13,0.14
		c0.04,0.09,0.1,0.17,0.21,0.26c0.11,0.09,0.07,0.29,0,0.47c-0.1-0.07-0.2-0.15-0.32-0.22c0.15-0.33-0.52-1.03-0.56-0.63
		c0.68,0.08-0.02,0.37,0.12,0.51c0.23,0.12,0.42,0.37,0.63,0.61c-0.19,0.4-0.35,0.82-0.49,1.24c-0.22,0.67-0.21,1.31,0.45,1.77
		c0.62,0.43,0.78,1.03,0.66,1.74c-0.03,0.19,0.01,0.4-0.02,0.6c-0.01,0.09,0,0.17,0,0.25c-0.1-0.02-0.21-0.04-0.33-0.08
		c0.12,0.12,0.24,0.21,0.36,0.29c0.01,0.06,0.03,0.12,0.05,0.17c-0.79-0.39-1.6-1.04-2.42-1.74c-0.64-0.56-1.29-1.14-1.9-1.68
		c-0.59-0.56-1.13-1.1-1.66-1.48c0.2,0.18-0.61-0.23-0.83-0.63c0,0.69,1.15,1.92,1.33,2.87c0.48,0.44,0.77,0.81,0.83,1.17
		c0.21,0.16,0.39,0.27,0.54,0.3c-0.24,0.7,2.74,2.64,2.15,2.83c0.53,0.22,1.01,0.29,1.73,0.73c0.16-0.14-0.14-0.3,0.09-0.44
		c0.37,0.24,0.68,0.38,0.87,0.33c-0.78-0.52-1.1-0.22-1.79-0.6c0.26-0.18-0.04-0.54-0.36-0.57c-0.36,0.11,0.4,0.35,0.24,0.48
		c-0.2-0.14-0.21,0.11-0.47-0.13c0.51-0.2-1.06-0.72-1.18-1.27c0.11-0.12,0.24-0.17,0.44-0.1c0.83,0.75,0.57,0.2,1.05,0.34
		c0.41,0.24,0.2,0.43,0.48,0.66c0.29-0.29,0.98,0.13,1.47,0.52c0.69,0.24,1.41,0.29,2.08,0.37c0.04,0.03,0.07,0.06,0.11,0.09
		c0.38,0.34,0.83,0.61,1.26,0.9c0.1,0.07,0.24,0.01,0.25-0.16c0.02-0.39,0.19-0.84-0.09-1.15c-0.38-0.42-0.67-1.01-1.41-0.95
		c-0.16,0.01-0.4-0.11-0.5-0.25c-0.14-0.2-0.27-0.41-0.41-0.61c0.03-0.02,0.08-0.03,0.14-0.05c-0.11-0.05-0.19-0.1-0.27-0.15
		c-0.21-0.32-0.41-0.65-0.62-0.98c0.2-0.54,0.38-1.09,0.61-1.62c0.09-0.19,0.14-0.36,0.08-0.55c-0.02-0.05-0.11-0.13-0.11-0.13
		c-0.73,0.59-0.85-0.26-1.19-0.52c-0.26-0.19-0.27-0.51-0.25-0.81c0.43-0.15,0.6,0.68,1.09,0.48c0.04,0.04,0.09,0.09,0.14,0.13
		c0.27,0.39,0.74,0.87,1.27,1.24c0.55,0.4,1.07,0.75,1.32,0.97c-0.04-0.09,0.25-0.21,0.35-0.17c0.27,0.42,1.69,0.61,1.03,0.71
		c0.43,0.3,0.63,0.16,0.88,0.12c-1.06-0.41-1.89-1.1-2.66-1.19c-0.13-0.48-0.8-0.78-1.3-1.1c-0.19-0.13-0.36-0.24-0.49-0.36
		c0.08-0.01,0.18-0.06,0.26-0.09c0.03-0.01,0.05-0.11,0.03-0.14c-0.06-0.12-0.17-0.21-0.21-0.33c-0.06-0.18-0.12-0.4,0.1-0.52
		c0.17-0.09,0.36-0.13,0.55,0.01c0.15,0.11,0.31,0.19,0.47,0.28c0.02,0.2-0.01,0.43,0.09,0.57c0.09,0.13,0.32,0.19,0.5,0.22
		c0.27,0.04,0.54,0.01,0.8,0.09c-0.13,0.05-0.27,0.03,0.05,0.21c0.12,0,0.26,0.02,0.4,0.06c0.05,0.03,0.1,0.04,0.15,0.05
		c0.75,0.26,1.64,0.93,2.21,1.03c-0.35-0.23-0.69-0.44-1.02-0.66c0.2,0.01,0.4,0.01,0.61,0c0.05,0,0.11-0.07,0.13-0.12
		c0.01-0.02-0.03-0.1-0.06-0.12c-0.28-0.19-0.57-0.18-0.85,0c-0.03,0.02-0.04,0.06-0.06,0.1c-0.19-0.12-0.37-0.25-0.55-0.37
		c0.18-0.13,0.35-0.28,0.57-0.24c0.23,0.04,0.47,0.03,0.71,0.01c0.21,0.21,0.44,0.41,0.7,0.53c0.07-0.22,0.47,0.2,0.5-0.1
		c0.03-0.07,0.01-0.14-0.03-0.21c0.4,0.21,0.79,0.18,1.2,0.17c0.43-0.01,0.7,0.06,0.86,0.57c0.08,0.26,0.27,0.46,0.53,0.57
		c-0.04,0.15,0.11,0.33,0.3,0.51c-0.43-0.02-0.59,0.39-1.12,0.22c0.22,0.12,0.38,0.24,0.41,0.38c-0.17,0.13-0.54-0.05-0.66,0.15
		c0.49,0.12,1.03,0.45,1.52,0.9c0.17-0.41,0.88,0.08,1.08,0.22c-0.24,0.15-0.61,0.03-0.92-0.24c0.08,0.46-0.53-0.12-0.54,0.22
		c0.46,0.33,2.16,0.04,2.54,0.94c-1.09-0.55-1.45-0.27-2.18-0.4c-0.37,0.37-0.25,0.67,0.05,0.94l0.09-0.22
		c0.28,0.09,0.31,0.21,0.47,0.31c-0.11,0.03-0.21,0.07-0.06,0.16c-0.11,0.18-0.17-0.18-0.47-0.23c0.38,0.33,1.01,0.62,1.37,0.97
		c1.16,0.3,2.69,1.36,3.66,1.39c-0.38-0.24-1.33-0.42-1.31-0.91c0.41-0.3,0.71,0.47,0.97,0.16c-0.54-0.31-0.85-0.21-0.96-0.61
		c0.17,0.06,0.17-0.1,0.31-0.07c0.49,0.28,1.01,0.72,0.86,0.93c0.04-0.27,0.31,0.34,0.42,0.06c-0.17-0.14-0.11-0.33-0.14-0.5
		c-0.64-0.2-1.02-0.47-1.03-0.81c0.84-0.07,1.4,0.35,2.03,0.41c0.12,0.24,0.27,0.46,0.46,0.65c0.17,0.17,0.35,0.13,0.54,0.06
		c0.16-0.06,0.25-0.31,0.49-0.16c0.33,0.2,0.73,0.33,1,0.59c0.61,0.62,1.32,1.04,2.12,1.35c0.01,0,0.01,0.01,0.01,0.02
		c-0.02,0.03-0.05,0.06-0.06,0.1c-0.76-0.12-1.3,0.07-2.06-0.33c0.03,0.07,0.09,0.1,0.14,0.15c-0.48-0.1-0.97-0.19-1.47-0.28
		c-0.34,0.52,0.57-0.01,0.53,0.42c-0.32,0.08-1.37-0.15-1.39-0.51c0.24,0.11,0.49,0.22,0.72,0.29c-0.07-0.19-0.39-0.31-0.67-0.43
		c0,0,0-0.01,0-0.01c-0.01,0-0.03-0.01-0.04-0.01c-0.17-0.08-0.33-0.16-0.4-0.28c-0.1,0.05-0.77-0.05-0.47,0.11
		c0.01,0,0.04,0.01,0.05,0.02c-1-0.22-1.93-0.56-2.82-0.82c-1.13-0.38-2.21-0.68-3.33-0.68c-0.22-0.47-0.66-0.65-1.12-0.69
		c-1.19-0.35-2.11-1.07-2.73-1.68c-0.38,0.45-0.94-0.76-1.5-0.78c0.01-0.13-0.08-0.21,0.12-0.22c-1.19-0.08-1.27-1.38-2.52-1.8
		c0.48,0.36-0.69,0.12,0.26,0.65c0.26-0.07-0.14-0.46,0.18-0.29c-0.3,0.42,0.75,0.93,0.9,1.53c0.91-0.01,1.37,0.8,2.33,1.36
		c0.02,0.19,0.02,0.77,0.45,0.69c-0.54-0.22,0.23-0.22,0.32-0.32c0.52,0.24,0.94,0.59,1.37,0.9c-0.3,0.06-0.55,0.15-0.69,0.24
		c0.12,0.05,0.23,0.09,0.35,0.14c0,0.09,0.01,0.14-0.16,0.25c0.56,0.38,0.7,0.16,1.02,0.2c-0.41,0.43,1.42,0.9,1.77,1.38
		c0.04-0.18,0.2-0.19,0.5-0.08c-0.1,0.09-0.22,0.07-0.09,0.24c2.63,0.91,5.06,1.61,7.47,2.33c0.89-0.06,3.31,0.27,3.03,1.09
		c2.93,0.93,6.07,1.12,9.36,1.4c1.11-0.39,2.47-0.19,3.48-0.1c-0.15-0.02,0.3-0.21,0.58-0.11c1.04,0.34-0.71,0.68-1.58,0.64
		c0.76-0.01,0.02,0.56-0.13,0.76c-1.66,0.16-3.01,0.09-4.47,0.24c-0.39-0.05-0.43-0.27-0.88-0.3c-0.65,0.3-1.3-0.32-2.06-0.34
		c-0.44-0.02-0.8,0.31-1.23,0.25c-0.49-0.06-0.88-0.47-1.29-0.53c-0.25-0.04-0.7,0.05-0.91,0.03c0.02,0,0.13-0.15,0.17-0.14
		c-0.44-0.07-0.7,0.13-1.08,0.09c-0.07-0.01-0.07-0.27-0.1-0.28c-0.5-0.26-1.23,0.02-1.81-0.09c-0.37-0.34,0.57-0.26-0.06-0.45
		c-0.1,0.27-0.71,0.07-0.97,0.2c-0.31-0.56-1.65-0.37-1.36-0.78c-0.51-0.06-1.22-0.11-1.9-0.27c-0.67-0.16-1.33-0.34-1.77-0.51
		c0.16,0.07,0.11,0.18,0.07,0.29c-1.07-0.38-1.42-0.5-2.05-0.55c0.03-0.08,0.15-0.05,0.2-0.11c-0.81-0.28-1.57-0.49-2.22-0.78
		c-0.65-0.29-1.22-0.57-1.68-0.84c-0.18,0.04-0.33,0.13-0.55,0.12c-0.26-0.36-0.38-0.32-0.72-0.25c-0.21-0.27,0.05-0.53-0.41-0.57
		c0.37,0.44-0.66,0-0.97-0.09c0.07-0.15-0.33-0.28-0.13-0.44c0.05-0.19,0.44,0.11,0.52-0.03c-0.9-0.41-1.01-0.18-1.26,0.15
		c0.27,0.28,0.82,0.55,1.13,0.83c0.46-0.31,1.82,0.65,2.07,0.98c-0.18-0.08-0.18,0.08-0.34,0.02c0.02-0.1,0.12-0.21-0.04-0.3
		c-1.02,0.1-1.77-0.58-2.83-1.16c0.17,0.46-0.38,0.1-0.54,0.39c1.1,0.53,2.22,1.04,3.21,1.53c-0.37-0.36,0.51-0.04,0.69-0.05
		c0.22,0.24,0.92,0.83,1.16,0.82c-0.16-0.09-0.1-0.19-0.05-0.3c0.43,0.65,1.39,0.8,2.18,1.22c-0.9-0.38-0.55-0.03-1.25-0.19
		c0.6,0.34,0.92,0.58,1.49,0.45l-0.08,0.24c0.73,0.12,1.59,0.49,2.5,0.88c0.46,0.19,0.92,0.4,1.39,0.56
		c0.48,0.14,0.96,0.24,1.43,0.29c0,0.1-0.08,0.23,0.09,0.29c1.65,0.09,3.86,1.24,4.72,1.04c0.01,0.34-0.78,0.3-1.11,0.02
		c-0.01,0.6,0.96,0.37,1.36,0.36c-0.02,0,0,0.17-0.03,0.17c0.63,0.01,0.96-0.33,1.62-0.27c0.84,0.07,1.02,0.55,2.13,0.56
		c-0.28-0.44,1.14,0.13,1.57-0.04c-0.83-0.13-0.35-0.17,0.32-0.11c0.67,0.05,1.55,0.12,1.53,0.41c-0.51-0.05-0.6,0.16-0.95,0.2
		c0.86,0.01,0.45,0.11,0.6,0.46c0.7-0.06,0.77,0.18,1.25,0.23c-0.06-0.27-0.69-0.27-0.92-0.47c0.21,0.01,0.34-0.02,0.47-0.06
		c0.36,0.12,0.58,0.56,0.93,0.21c-0.02,0.15,0.03,0.27,0.15,0.35c-1.27,0.04-2.14,0.08-2.99,0.05c-0.84-0.09-1.66-0.25-2.82-0.58
		c-0.72,0.03-1.44-0.15-2.16-0.31c-0.73-0.16-1.46-0.28-2.23-0.25c0.01-0.16-0.5-0.18-0.41-0.36c-1.97-0.24-3.81-1.55-5.51-1.44
		c0.42,0.17,1.05,0.25,1.01,0.49c-0.48-0.11-2.67-0.61-2.01-1.01c-0.37-0.08-0.72-0.12-1.22-0.34c-0.34,0.26,0.77,0.29,0.67,0.51
		c-0.69-0.2-2.26-0.59-2.6-1.2c-1.37-0.45-2.51-1.02-3.54-1.51c-1.02-0.51-1.91-1.03-2.65-1.65c-0.28,0.35-0.2-0.31-0.49-0.43
		c-0.4-0.1-0.06,0.44-0.33,0.3c-0.14-0.08-0.19-0.03-0.31-0.08c-0.56-0.24-0.39-0.47-0.7-0.7c-0.28,0.11-0.91-0.35-1.44-0.65
		c0.21-0.62-0.96-0.85-1.49-1.2c-1.1-0.67-2.22-1.68-3.34-2.57c-1.09-0.92-2.18-1.73-2.94-2.4c1.06,1.22,1.66,1.32,2.48,2.44
		c0.85,0.42,1.68,1.07,2.52,1.76c0.86,0.66,1.77,1.3,2.67,1.81c-0.13,0.17,0.08,0.36,0.06,0.53c-0.22,0.01-0.58-0.19-0.81-0.19
		c0.44,0.48,2.15,0.88,2.8,1.85c0.2-0.2,0.58,0.19,0.89,0.37c0.72-0.29,2.85,0.77,3.63,1.25c-0.1,0.13-1.31-0.6-0.93-0.25
		c0.43,0.2,0.88,0.4,0.77,0.64c-0.27-0.07-0.81-0.49-0.9-0.33c0.41,0.33,1.42,0.63,0.96,1.01c0.59,0.34-0.07-0.39,0.57-0.11
		c0.01,0.08,0.08,0.15,0.26,0.21c0.04,0.45-0.42,0.26-0.66,0.35c0.57,0.51,0.74,0.21,0.83,0.1c0.37,0.42-0.5,0.12-0.19,0.47
		c0.57,0.43,1.27,0.69,1.61,0.81c-0.17-0.08-0.21-0.18-0.25-0.27c0.25,0.15,0.72,0,0.76,0.28c-0.18-0.05-0.43-0.17-0.49-0.09
		c0.78,0.53,2.24,0.84,2.63,1.4c0.41,0.03-0.2-0.34,0.26-0.27c0.92,0.19,0.71,0.56,1.29,0.81c0.12-0.09-0.06-0.48,0.27-0.35
		c0.53,0.24,1.55,0.28,1.34,0.65c-0.18,0.02-1.23-0.24-0.84-0.04c0.93,0.08,1.51,0.42,1.98,0.16c0.61,0.26-0.22,0.42,0.36,0.61
		c0.23,0.01,0.1-0.31,0.39-0.25c0.17,0.2,1.78,0.97,1.07,0.44c0.66,0.24,0.79,0.26,1.74,0.5c0.05-0.12,0-0.32,0.22-0.3
		c1.31,0.43,2.58,0.56,3.8,0.73c1.22,0.14,2.4,0.3,3.59,0.52c0.07-0.14-0.23-0.23,0.02-0.25c0.9,0.18,1.64,0.34,2.26,0.03
		c0,0.12-0.08,0.18-0.17,0.25c0.67-0.12,1.51,0.1,2.11,0.26c-0.45,0.32-1.28,0-1.48,0.53c1.14,0,1.64-0.68,2.94-0.49
		c0.22-0.19-0.42-0.33-0.01-0.34c0.49,0.12,0.63,0.1,0.97-0.07c0,0.29,0.49,0.29,0.82,0.39c1.27-0.38,2.56,0.13,3.7-0.46
		c0.65,0.01,1.37,0.02,2.12-0.04c0.75-0.09,1.52-0.2,2.27-0.34c1.51-0.27,2.93-0.61,3.91-0.95c0.19,0.19,0.9-0.12,0.89,0.23
		c0.83-0.53,1.46-0.15,2.01-0.69c-0.2,0.04-0.38,0.07-0.36-0.08c0.36-0.17,0.4-0.16,1.07-0.37c0.05,0.12,0.06,0.29,0.39,0.16
		c0.35-0.66,1.75-0.48,2.53-0.61c-0.01-0.17-0.27-0.1-0.4-0.15c0.6-0.2,1.67-0.69,1.96-0.32c-0.36,0.23-0.66-0.15-0.79,0.2
		c0.22-0.06,0.24,0.11,0.39,0.13c1.51-1.06,3.84-1.78,4.94-2.14c0.39-0.15,0.45-0.5,0.63-0.58c0.46-0.2,0.99-0.03,1.72-0.55
		c-0.13,0.09,0.21-0.09,0.58-0.29c0.15-0.07,1.58-0.98,2.12-0.87c0.17,0.16-1.08,0.68-0.6,0.59c0.51-0.29,0.64-0.47,1.17-0.59
		c-0.17-0.16-0.02-0.34,0.21-0.46c0.22-0.14,0.53-0.25,0.7-0.24c-0.37,0.39-1.01,0.74-1.07,1.08c0.86-0.55,2.25-1.91,2.54-1.18
		c-0.04-0.07,0.19-0.24,0.28-0.17c-0.46,0.53-0.14,0.54-0.53,1.02c0.72-0.87,1.6-1.27,2.44-1.71c0.83-0.45,1.66-0.86,2.1-1.89
		c0.13,0.11-0.04,0.26,0.07,0.37c0.42-0.3,0.22-0.49,0.82-0.83c0.07,0.15,0.26,0.04,0.34,0.17c0.32-0.28,0.7-0.58,0.82-0.83
		c-0.56,0.47-0.92,0.52-1.18,0.36c0.95-0.56,1.14-1.18,2.2-1.46c-0.57,0.34-0.23,0.5-0.81,0.83c0.25,0.06,0.38,0.39,0.85-0.01
		c-0.06-0.11-0.24-0.21-0.08-0.36c0.14,0.35,1.98-0.84,2.65-1.48c-0.08-0.35-0.47,0.1-0.58-0.16c0.21-0.06,0.5-0.32,0.79-0.6
		c-0.12,0.38-0.05,0.29,0.22,0.49c0.45-0.3-0.02-0.36,0.32-0.63c0.2,0.25,0.76-0.46,1.03-0.36c0.34-0.7,0.66-0.67,0.73-0.45
		c0.3-0.6,0.54-0.71,0.68-1.21c0.32-0.07,0.07,0.09,0.24,0.24c0.46-0.55,0.43-0.47,0.91-0.74c0.12-0.24,0.12-0.45,0.22-0.71
		c0.33-0.1,0.5-0.46,0.3,0.05c1.37-1.24,1.05-2.34,1.78-2.86c-0.41-0.48,0.28-0.89,0.85-1.22c0-0.29-0.53,0.12-0.26-0.21
		c0.44-0.23,0.69-0.51,1.02-1.07c0.3,0.05,0.05,0.37,0.14,0.52c0.11-0.38,0.55-0.7,0.53-0.84c-0.18,0.16-0.35,0.24-0.5,0.24
		c0.24-0.31,0.18-0.47,0.53-0.84l0.2,0.15c0.46-1.39,1.95-2.71,1.99-3.42c0.24-0.47,0.38-0.16,0.6-0.39c-0.09-0.07-0.2-0.04-0.31,0
		c0.11-0.41,1.63-1.74,0.72-1.1c0.43-0.64,0.84-0.67,0.91-1.18c-0.22,0.32-0.39,0.21-0.22-0.13c-0.01,0.26,0.17,0.24,0.39-0.15
		c-0.04-0.21,0.1-0.53,0.2-0.83c-0.03,0.49,0.52-0.57,0.57-0.81c-0.08,0.1-0.17,0.28-0.24,0.24c0.14-0.3,0.43-1.14,0.75-1.27
		c0.05,0.14-0.31,0.55-0.18,0.65c0.41-0.41,0.27-0.69,0.51-1.21c0.59,0.02,0.38-1.63,1.03-1.5c-0.44,0.52-0.49,1.1-0.59,1.59
		c-0.11,0.48-0.23,0.89-0.72,1.07c0.41,0.25-0.13,0.59-0.37,1.3c0.33-0.03,0.05,0.32,0.13,0.45c0.45-0.63,0.16-0.45,0.19-0.65
		c0.16-0.09,0.33-0.51,0.48-0.31c-0.09,0.17-0.25,0.4-0.18,0.47c0.29-0.63,0.56-0.88,0.81-0.89c0.13-0.43,0.33-0.74,0.59-1.16
		c0.24-0.44,0.53-0.98,0.88-1.84c0-0.34-0.34,0.1-0.16-0.44c1.27-1.81,1.47-3.87,2.17-5.39c-0.13-0.41-0.56,0.12-0.31-0.64
		c0.25-0.34,0.38-0.18,0.54,0.01c0.2-1.54,1.01-2.3,1.46-3.89c-0.5-0.84,0.74-2.87,0.42-3.99c-0.07,0.77-0.31,1.73-0.69,2.03
		c-0.14-0.67,0.22-2.55,0.73-2.19c-0.08-0.93,0.73-1.56,0.29-1.95c0.61-0.07,0.89-1.93,0.86-3.02c0,0.16,0.13-0.23,0.18-0.64
		c0.13-1.08,0.31-2.29,0.44-3.48c0.05-0.93,0.04-1.86-0.04-2.71c0.09,0,0.19,0.01,0.31,0.05c-0.07-1.02-0.14-2.03-0.21-3.03
		c0.02,0.02,0.04,0.03,0.09,0.01c-0.14-0.5-0.1-0.68-0.17-1.15c-0.03-0.34-0.05-0.67-0.08-1.01c0.17-0.42,0.3-1.18,0.34-1.61
		c0.02,0.32,0.24,0.19,0.2,0.64c-0.12,0.72-0.07,1.61,0.25,2.13c-0.06,0.34-0.14,0.35-0.26,0.17c0.21,1.92-0.06,3.35,0.3,5.11
		c-0.29-0.44-0.3,1.61,0.02,1.16c-0.24,1.11-0.49,2.53-0.62,3.94c-0.07,0.71-0.12,1.41-0.13,2.07c-0.01,0.33-0.01,0.65,0,0.95
		c-0.01,0.3-0.01,0.58,0,0.85c0.11-0.82,0.59-2.26,0.36-2.99c0.31,0.43,0.17-0.72,0.04-0.84l0.25,0.03
		C134.11,77.93,134.16,74.15,134.2,70.51z M110.28,24.27c0.29-0.14,0.47,0.3,0.58,0.53C110.7,24.92,110.32,24.37,110.28,24.27z
		 M40.15,127.21c0.03-0.44,0.73,0.2,0.79,0.09C41.29,127.62,40.51,127.44,40.15,127.21z M45,130.05c0.21-0.44,0.47,0.14,1.05,0.28
		C45.93,130.49,45.32,130.11,45,130.05z M46.21,128.77c0.07-0.22,0.73,0.04,0.88,0.22C47.02,129.16,46.48,128.82,46.21,128.77z
		 M56.69,133.07c0.14-0.05,0.36-0.04,0.62,0c-0.03,0.12-0.05,0.24,0.12,0.28C57.29,133.53,56.47,133.3,56.69,133.07z M61.59,134.02
		c-0.1-0.24,0.32-0.16,0.32-0.32c-1.22-0.3-2.49-0.12-2.88-0.81c1.05,0.3,1.48,0.06,2.3-0.07c0.2,0.09,0.29,0.24,0.6,0.28
		c-0.24,0.19-0.38,0.11-0.77,0.05c0.11,0.33,0.52,0.52,1.21,0.57C62.47,134.03,62.12,134.08,61.59,134.02z M127.81,87.06
		c0.19,0.02-0.1,0.55-0.11,0.78c-0.05-0.08-0.1-0.17-0.12-0.29c0.06-0.14,0.12-0.27,0.17-0.41
		C127.77,87.14,127.79,87.12,127.81,87.06z M126.44,98.01c-0.34,0.57-0.25,0.5-0.55,1.18c-0.25,0.19-0.51-0.08-0.18-0.61
		C125.97,99.22,125.97,97.91,126.44,98.01z M85.42,129.42c-0.04,0.21-0.78,0.35-1.12,0.47C84.44,129.44,84.83,129.61,85.42,129.42z
		 M77.49,132.97c-0.86,0.08-1.26-0.04-2.22-0.07c0.44-0.45,1.35-0.25,2.25-0.54C77.52,132.56,77.35,132.71,77.49,132.97z
		 M72.8,133.03c-0.12,0.29-0.52,0.01-0.62-0.03c-0.07-0.19,0.43-0.12,0.42-0.29C73.14,132.66,72.26,133.08,72.8,133.03z
		 M74.65,132.92c-0.07,0.21-0.47,0.3-0.54,0.51c-0.24-0.22-1.32,0.19-1.43-0.13C73.38,133.45,73.84,132.85,74.65,132.92z
		 M73.51,131.7c-0.49,0.12-0.93,0.28-1.74,0.39c-0.35-0.43,0.35-0.59,1.23-0.81c0.88-0.2,1.96-0.34,2.38-0.46
		c0.66,0.12,0.84,0.44-0.03,0.69c0.02-0.07,0.14-0.11,0.12-0.19C74.51,131.48,73.99,131.58,73.51,131.7z M72.04,133.1
		c-1.11,0.29-3.7,0.3-3.08-0.14C69.74,133.26,70.75,132.83,72.04,133.1z M76.19,131.12c-0.09-0.21,0.27-0.27,0.54-0.35
		C76.77,131,76.47,131.23,76.19,131.12z M77.31,128.55c-1.03,0.15-2.07,0.25-2.87,0.36c-0.35,0.14,0.18,0.35,0.49,0.27
		c-0.1,0.26-0.61,0.07-0.86,0.14c-0.04-0.15,0.15-0.2,0.09-0.36c-0.09-0.18-0.71,0.08-1.01,0.07c0.91-0.56,1.86-0.76,2.96-0.89
		c0.55-0.06,1.14-0.12,1.76-0.19c0.62-0.1,1.28-0.26,2-0.46c0.02,0.12,0.04,0.24,0.21,0.21c-0.37,0.19-0.8,0.36-1.27,0.51
		c-0.23,0.08-0.48,0.15-0.73,0.21C77.83,128.47,77.57,128.51,77.31,128.55z M43.31,118.48c0.06-0.01,0.13,0,0.19,0.03c0,0,0,0,0,0
		c-0.01,0.02,0,0.04-0.02,0.06c-0.19-0.04-0.28-0.06-0.33-0.09C43.2,118.48,43.25,118.49,43.31,118.48z M35.27,115.07
		c-0.04,0.04-0.09,0.08-0.13,0.12c-0.04-0.02-0.08-0.04-0.12-0.06c0.02-0.03,0.04-0.06,0.06-0.09c0.02-0.03,0.04-0.06,0.06-0.09h0
		l0,0C35.19,114.99,35.23,115.03,35.27,115.07z M60.87,21.64c-0.11,0.11-0.28,0.17-0.54,0.19c-0.04,0-0.08,0-0.12,0
		c-0.11-0.04-0.29-0.01-0.47,0.01C60.1,21.65,60.48,21.61,60.87,21.64z M130.59,55.13c0.11,0.37,0.02,0.53-0.08,0.68
		c-0.12-0.45-0.15-0.92-0.29-1.37c0.01-0.09,0.02-0.17,0.04-0.23C130.53,55.16,130.16,55.08,130.59,55.13z M130.79,55.92
		c0.05,0.29,0.1,0.5,0.14,0.69c-0.02-0.01-0.03-0.02-0.06-0.02c-0.06-0.08-0.11-0.16-0.15-0.24
		C130.64,56.1,130.59,55.86,130.79,55.92z M130.25,77.1c0.02-0.22-0.02-0.35-0.09-0.43c0.03-0.37,0.08-0.72,0.16-0.98
		c0.06,0.1,0.11,0.21,0.16,0.32c0.02-0.15-0.04-0.37-0.06-0.57c0.01-0.02,0.02-0.05,0.03-0.07c-0.01-0.04-0.02-0.09-0.03-0.14
		c0.01-0.07,0.04-0.13,0.1-0.17c0.02,0.3,0.23,0.29,0.13,0.8C130.08,76.47,130.45,76.13,130.25,77.1z M77.7,22.5
		c-0.1,0.02-0.15-0.01-0.18-0.05c0.06-0.02,0.13-0.03,0.2-0.05C77.71,22.44,77.7,22.5,77.7,22.5z M118.46,38.65
		c-0.26-0.02-0.48-0.09-0.5-0.41c0-0.01,0-0.01,0-0.02C118.13,38.36,118.3,38.49,118.46,38.65z M130.09,72.21
		c-0.02-0.25-0.04-0.51-0.06-0.77c0.01-0.02,0.02-0.04,0.02-0.06c0.06-0.19,0.23-0.35,0.39-0.51c0,0.26,0,0.53,0.01,0.79
		c0.02,0.58,0.06,1.14,0.15,1.67c-0.13,0.01-0.29-0.02-0.27,0.31c0.13,0.03,0.32-0.05,0.33,0.16c-0.06,0.47-0.17,0.85-0.31,1.15
		C130.17,74.18,130.12,73.22,130.09,72.21z M130.4,69.96c0,0.04,0,0.09,0.01,0.13C130.39,70.05,130.39,70.01,130.4,69.96z
		 M122.1,42.6c-0.19-0.2-0.15-0.48,0.09-0.67c0.02-0.01,0.04-0.02,0.07-0.02c0.28,0.34,0.54,0.73,0.79,1.17
		C122.68,43.15,122.48,43.02,122.1,42.6z M121.82,41.43c-0.29-0.08-0.48-0.27-0.58-0.56C121.43,41.04,121.63,41.23,121.82,41.43z
		 M130.14,76.8c0.03,0.19,0.02,0.4-0.02,0.61C130.12,77.21,130.13,77.01,130.14,76.8z M132.03,62.1c0.04-0.12,0.1-0.25,0.17-0.37
		c0.01,0.27-0.03,0.5-0.14,0.59C132.06,62.24,132.04,62.17,132.03,62.1z M131.84,60.53c0-0.05,0-0.12,0.01-0.16
		c0.06,0.07,0.11,0.18,0.16,0.32C131.96,60.64,131.9,60.59,131.84,60.53z M131.33,58.8c-0.21,0.46,0.09,1.01,0.24,0.95
		c-0.02,0.21-0.08,0.28-0.15,0.29c-0.07-0.09-0.14-0.18-0.2-0.27c-0.02-0.06-0.03-0.12-0.04-0.18c-0.08-0.1-0.17-0.19-0.26-0.27
		c-0.05-0.09-0.1-0.17-0.12-0.22c-0.07-0.17,0.13-0.4,0.34-0.37c0.05,0.01,0.11,0.02,0.16,0.04
		C131.31,58.78,131.32,58.79,131.33,58.8z M130.14,54.24c-0.01-0.01-0.01-0.03-0.02-0.05c-0.03-0.07-0.03-0.12-0.02-0.18
		C130.12,54.09,130.13,54.16,130.14,54.24z M61.84,21.84c-0.1-0.01-0.18-0.03-0.26-0.07C61.67,21.79,61.75,21.82,61.84,21.84z
		 M82.15,129.61c0.12,0.36-0.45,0.08-0.85,0.31C81.45,129.66,81.76,129.64,82.15,129.61z M114.92,113.9
		c0.16,0.28-0.44,0.47-0.79,1.01c-0.1-0.11-0.27,0.03-0.36-0.1C114.16,114.47,114.56,114.09,114.92,113.9z M115.7,112.89
		c0.08,0.09,0.17,0.17,0.3,0.04c0.19,0.16-0.44,0.81-0.67,0.89C115.21,113.6,115.36,113.28,115.7,112.89z M128.07,86.28
		c0.03,0.02,0.06,0.03,0.09,0.05c-0.1,0.23-0.14,0.25-0.19,0.22C128.01,86.46,128.04,86.37,128.07,86.28z M129.92,79.93
		c-0.01-0.13-0.02-0.25-0.04-0.36c0.05-0.05,0.1-0.09,0.15-0.11C130.02,79.61,129.97,79.77,129.92,79.93z M130.22,78.9
		c-0.03-0.2-0.06-0.46-0.08-0.74c0.05-0.23,0.11-0.44,0.24-0.74c-0.04,0.71-0.11,0.94-0.08,1.46
		C130.28,78.89,130.25,78.9,130.22,78.9z M132.25,65.03c0.08-0.39,0.1-0.78,0.04-1.26c0.47,0.19,0.27,1.31,0.03,1.71
		C132.29,65.33,132.27,65.18,132.25,65.03z M132.11,62.63c0.15,0.18,0.24,0.53,0.31,0.94C132.13,63.76,132.02,62.9,132.11,62.63z
		 M130.91,54.7l-0.33,0.09c-0.12-0.27,0.07-0.72-0.21-0.79c-0.06-0.55,0.21,0.13,0.29,0.09c0.04-0.21-0.07-0.33-0.21-0.49
		c0.06-0.05,0.11-0.1,0.16-0.15C130.82,53.79,130.97,54.19,130.91,54.7z M130.27,51.98c-0.11-0.01-0.17-0.3-0.23-0.53
		c0.01,0,0.02,0,0.03,0c0.08-0.01,0.15-0.07,0.2-0.14C130.47,51.76,130.23,51.73,130.27,51.98z M128.89,50.41
		c0.03-0.02,0.11-0.01,0.15,0.02c0.29,0.19,0.48,0.43,0.55,0.79c0.03,0.17,0.17,0.23,0.33,0.24c0.03,0.13,0.05,0.27,0.05,0.45
		c-0.08,0.02-0.06,0.16-0.12,0.21c-0.21-0.73-0.61-0.47-0.12-0.13c0.02,0.1,0.04,0.2,0.06,0.3c-0.27-0.01-0.54-0.01-0.81-0.04
		c-0.08-0.01-0.2-0.21-0.18-0.3c0.06-0.24,0.28-0.48,0.25-0.68c-0.04-0.23-0.33-0.4-0.27-0.7
		C128.79,50.51,128.84,50.44,128.89,50.41z M126.04,45.11c-0.1-0.05-0.2-0.09-0.3-0.04c-0.06-0.15-0.13-0.27-0.19-0.38
		c-0.02-0.1-0.03-0.21-0.03-0.31C125.68,44.61,125.87,44.88,126.04,45.11z M115.15,30.2c0.06,0.07,0.13,0.15,0.19,0.22
		c-0.01,0.02-0.02,0.05-0.04,0.07c-0.35-0.07-0.52-0.53-0.73-0.97C114.76,29.75,114.95,29.98,115.15,30.2z M109.35,28.34
		c0.03,0.02,0.05,0.06,0.07,0.1c-0.07-0.03-0.14-0.06-0.21-0.08C109.24,28.32,109.29,28.31,109.35,28.34z M58.58,22
		c0,0.07,0,0.14,0.01,0.2c0.16,0,0.26-0.09,0.32-0.21c0.27,0,0.54,0.01,0.82,0.02c-0.1,0.22-0.3,0.36-0.49,0.49
		c-0.32,0.21-0.55,0.09-0.66-0.26c-0.11,0.04-0.23,0.07-0.34,0.12c-0.53,0.27-0.72,0.26-1-0.1c-0.01-0.01-0.02-0.03-0.03-0.04
		C57.66,22.07,58.12,22.01,58.58,22z M54.68,22.61c0.46-0.09,0.9-0.13,1.3-0.13c-0.1,0.09-0.23,0.15-0.44,0.14
		c-0.13,0-0.31,0-0.37,0.08c-0.45,0.57-1.17,0.1-1.67,0.46c-0.35,0.25-0.55,0.12-0.72-0.07C53.41,22.88,54.07,22.72,54.68,22.61z
		 M21.42,103.09c-0.06-0.01-0.11-0.2-0.1-0.3c0.01-0.05,0.04-0.1,0.07-0.15c0.03-0.05,0.07-0.09,0.1-0.14c0,0,0,0,0,0c0,0,0,0,0,0
		c0.05,0.1,0.13,0.19,0.15,0.29C21.67,102.95,21.65,103.14,21.42,103.09z M23.26,108.12c-0.02,0.09-0.14,0.15-0.21,0.23
		c-0.04-0.05-0.12-0.09-0.12-0.14c-0.02-0.18-0.02-0.36-0.03-0.54c-0.01,0-0.02,0-0.03,0c0-0.01,0-0.03,0-0.04
		c-0.09-0.04-0.18-0.08-0.26-0.13c-0.02-0.01,0.01-0.13,0.02-0.13c0.22-0.03,0.23,0.11,0.24,0.26c0.01,0,0.02,0.01,0.03,0.01
		c0,0.01,0,0.02,0,0.03C23.19,107.67,23.33,107.81,23.26,108.12z M24.46,109.22C24.46,109.22,24.46,109.22,24.46,109.22
		L24.46,109.22c-0.1-0.06-0.2-0.12-0.31-0.18c0.11-0.06,0.22-0.16,0.33-0.15c0.11,0,0.21,0.11,0.32,0.18
		C24.69,109.11,24.58,109.16,24.46,109.22z M25.27,110.08c-0.01,0.15-0.02,0.3-0.25,0.26c-0.02,0-0.04-0.12-0.02-0.13
		C25.09,110.15,25.18,110.12,25.27,110.08c0-0.01,0-0.03,0-0.04c0.01,0,0.02,0,0.03,0c-0.01-0.24-0.04-0.48,0.16-0.67
		c0.12-0.11,0.51-0.11,0.5,0c-0.01,0.1-0.04,0.22-0.1,0.29c-0.15,0.18-0.28,0.4-0.57,0.38c0,0.01,0,0.02,0,0.03
		C25.29,110.07,25.28,110.07,25.27,110.08z M26.86,110.45c-0.28,0.64-0.87,1.13-0.93,1.89c0,0.04-0.24,0.1-0.34,0.07
		c-0.1-0.03-0.25-0.18-0.24-0.25c0.19-0.75,0.52-1.45,0.99-2.07c0.04-0.05,0.25,0,0.37,0.03c0,0,0,0,0.01,0
		c0.03,0.03,0.06,0.06,0.1,0.09c0.01,0.02,0.02,0.03,0.04,0.04C26.85,110.32,26.88,110.4,26.86,110.45z M32.85,115.42
		c-0.07,0.15-0.17,0.21-0.32,0.16c0.04-0.13,0.12-0.24,0.32-0.27c0.34-0.05,0.49,0.16,0.45,0.46c0,0.04,0.01,0.06,0.01,0.09
		C33.19,115.74,33.06,115.6,32.85,115.42z M35.34,116.04c0,0.01-0.01,0.03-0.01,0.04l-0.03-0.03
		C35.31,116.05,35.33,116.04,35.34,116.04c0.01-0.03,0.02-0.06,0.03-0.09c0.03,0.02,0.06,0.03,0.08,0.05
		C35.42,116.01,35.38,116.03,35.34,116.04z M48.86,126.58c-1.24-0.57-2.45-1.14-3.92-1.41c-0.48-0.22-0.95-0.53-1.46-0.85
		c-0.05-0.04-0.11-0.08-0.17-0.11c0.23,0.05,0.46,0.1,0.68,0.15c0.55,0.12,1.08,0.24,1.61,0.4c0.54,0.14,1.1,0.32,1.7,0.59
		c1.01-0.45,2.44,1.34,3.4,1.21c-0.38-0.61,1.24-0.11,2.17,0c-0.15,0.27-0.04,0.62,0.02,1.11
		C51.41,127.52,50.12,127.05,48.86,126.58z M67.57,129.72c0.3-0.19,0.48,0.2,1.02,0.11c-0.01-0.08-0.18-0.05-0.29-0.07
		c0.03-0.12,0.43-0.05,0.42-0.19c-0.17-0.18-0.91,0.02-1.3-0.01c0.59-0.42,2.06-0.39,2.54-0.66c0.24,0.17,0.14,0.45,0.05,0.51
		c0.16,0.28,0.32-0.01,0.59,0.13c0.39-0.13-0.47-0.14-0.33-0.4c1.1-0.08,1.36,0.01,1.84-0.29c0.47,0.07,0,0.15,0.86-0.04
		c0.15,0.57-0.9,0.28-1.24,0.49c0.53,0.36,1.81-0.57,1.9,0.01c-0.45,0.05-0.92,0.15-1.41,0.25c-0.49,0.07-1,0.15-1.52,0.22
		C69.66,129.91,68.58,129.97,67.57,129.72z M67.9,133.18c-0.14,0.26,0.35,0.13,0.62,0.14c-0.5,0.14-1.32,0.18-2.23,0.21
		c-0.92-0.03-1.93-0.08-2.83-0.02C64.53,132.88,66.28,133.47,67.9,133.18z M62.99,133.74c0.87,0.14,1.08,0.08,2.01,0.16
		c-0.87-0.43,1.93-0.21,2.16-0.01c-0.73,0.24-1.59,0.19-2.4,0.14c-0.81-0.04-1.57-0.08-2.09,0.12
		C62.55,133.87,62.92,133.9,62.99,133.74z M62.51,134.48c0.13-0.29,0.55-0.07,0.78,0.03C63.24,134.71,62.6,134.54,62.51,134.48z
		 M73.06,134.96l-0.04-0.27c-0.07,0.02-0.14,0.03-0.21,0.05c-0.34,0.06-0.69,0.1-1.06,0.15c-0.73,0.09-1.5,0.17-2.28,0.22
		c-1.57,0.09-3.23,0.17-4.78-0.12c-0.17,0.02-0.11,0.17-0.31,0.16c-0.37-0.04-0.65-0.13-0.94-0.21c0.04-0.26,0.78-0.11,1.26-0.12
		c0.01-0.12,0.02-0.24-0.16-0.26c1.52-0.04,4.27-0.03,6.51-0.64c0.51,0.06,1,0.13,1.29,0.34c0.45-0.1-0.13-0.26-0.05-0.42
		c0.39-0.08,0.75,0.25,0.94-0.02c0.46,0.01,0.19,0.1,0.2,0.31c0.77-0.24,1.32-0.43,1.83-0.45c0.11-0.3-0.5-0.05-0.8-0.05
		c0.44-0.37,1.53-0.43,2-0.32c0.18,0.3-0.62,0.67,0.27,0.56c-0.63,0.41-2.51,0.11-2.78,0.53c1.22,0.03,3.26-0.61,3.98-0.21
		C76.31,134.83,74.82,134.57,73.06,134.96z M80.2,132.92c-0.02-0.15-0.23-0.13-0.23-0.29c0.58-0.24,0.52,0.13,1.1-0.11
		C80.95,132.7,80.45,132.78,80.2,132.92z M84.31,131.39c-1.85,0.29-3.44,0.77-5.33,1.15c0.06,0.15,0.52-0.08,0.64,0.01
		c0.04,0.26-0.89,0.39-0.93,0.13c-0.39,0.24-0.41,0.32-0.18,0.63c-0.7-0.18-0.84-0.4-0.6-0.59c0.25-0.2,0.89-0.35,1.77-0.54
		c-0.16-0.09-0.51,0-0.79,0.03c-0.13-0.24,0.67-0.24,0.69-0.44c0.21-0.03,0.18,0.18,0.23,0.29c1.43-0.46,1.53-0.53,3.09-0.99
		c0.29,0.25,0.75-0.2,1.15,0.04c0.38-0.18-0.51-0.06-0.11-0.32c1.07-0.22,1.04,0.02,2.1-0.51c-0.06-0.23-0.91,0.44-0.81,0.03
		c0.71-0.12,1.21-0.38,1.7-0.72c0.12,0.17,0.09,0.31,0.01,0.45c0.39-0.12,0.43-0.29,0.31-0.48c0.7-0.36,0.94-0.19,1.28-0.12
		C88.01,130.29,85.18,130.73,84.31,131.39z M98.21,127.65c-0.02-0.44,0.61-0.48,0.96-0.88C99.3,127.03,98.5,127.36,98.21,127.65z
		 M102.62,126.71c-0.26,0.62-0.24-0.12-0.65,0.21c-0.02-0.12,0.31-0.28,0.51-0.42c0.06,0.11,0.11,0.21,0.28,0.12
		C102.79,126.72,102.65,126.75,102.62,126.71z M102.12,125.42l0.54-0.34l0.15,0.21C102.53,125.42,102.21,125.63,102.12,125.42z
		 M102.75,124.92c-0.11-0.18,0.33-0.45,0.67-0.71l0.15,0.2C103.26,124.66,102.96,124.89,102.75,124.92z M102.52,124.52
		c-0.84,0.58-1.7,1.12-2.13,1.49c0.05-0.35,0.77-0.89,1.63-1.48c0.85-0.6,1.8-1.32,2.43-1.84
		C104.11,123.22,103.32,123.88,102.52,124.52z M108.47,123.25c-0.29-0.19-0.34-0.18-0.26-0.55
		C108.52,122.68,109,122.82,108.47,123.25z M108.95,122.55c-0.14,0-0.35,0.17-0.43,0.01c0.15-0.05,0.3-0.1,0.26-0.2
		c0.15-0.1,0.19,0.05,0.36-0.09c-0.02,0.11-0.04,0.22,0.04,0.3C109.03,122.67,108.76,122.72,108.95,122.55z M111.24,121.38
		c-0.04-0.12,0.26-0.33,0.43-0.51c-0.09-0.05-0.27,0.15-0.43,0.28c-0.22-0.01,0.17-0.54-0.23-0.25c0.03-0.2,0.68-0.25,0.9-0.26
		C111.5,121.07,111.78,121.09,111.24,121.38z M114.14,116.42l0.19,0.17l-0.55,0.6C113.55,117.06,114.01,116.68,114.14,116.42z
		 M115.04,117.45c0.1-0.39-0.16-0.09-0.46,0.25c-0.12-0.38,0.72-0.71,1.06-1.05C115.77,116.79,115.19,117.2,115.04,117.45z
		 M115.53,115.26c-0.11,0.72-0.3,1.38-1.39,2.04c0.11-0.47,1.11-1.12,0.76-1.72c1.01-0.92,1.63-1.83,2.18-2.2
		C117.06,114.04,116.16,115.01,115.53,115.26z M118.41,111.94c-0.56,0.63-0.87,0.78-1.1,1.42l-0.33-0.26
		c0.66-0.61,1.17-1.68,1.94-2.4C118.93,111.17,118.27,111.49,118.41,111.94z M125.07,101.5c-0.28-0.01-0.1-0.36-0.39-0.37
		c0.25-0.16,0.47-1.01,0.73-0.73c-0.18-0.34,0.43-0.96,0.7-1.47C125.6,99.89,125.54,100.83,125.07,101.5z M125.18,104.33
		c-0.12-0.08-0.26,0-0.39,0.17c-0.15-0.11,0.05-0.44,0.27-0.79c0.01,0.33,0.21-0.03,0.22,0.3c0.19-0.25,0.4-0.92,0.57-0.64
		C125.63,103.49,125.41,103.95,125.18,104.33z M126.07,102.54c-0.03-0.51,0.22-0.61,0.51-1.05
		C126.61,102,126.36,102.11,126.07,102.54z M126.66,96.53c-0.05-0.17-0.01-0.44,0.14-0.81C127.04,95.77,126.88,96.37,126.66,96.53z
		 M126.52,94.25c-0.01-0.43,0.22-0.57,0.35-1.23C127.11,93.11,126.71,94.07,126.52,94.25z M127.36,90.85c0.24,0.22-0.23,0.6-0.2,1.1
		C126.81,91.97,127.31,91.21,127.36,90.85z M127.33,93.51c-0.09-0.6,0.03-0.88,0.18-1.79c0.05,0.26-0.09,1.1,0.27,0.25
		C128.06,92.29,127.48,92.95,127.33,93.51z M128.54,86.58c-0.33,1.55-0.18,2.14-0.21,2.89c-0.07,0.36-0.28,0.11-0.37,0.39
		c0.45-0.15,0.14,1.02-0.07,1.8c-0.27-0.14-0.42-0.14-0.43-0.3c0.15-0.13,0.27-0.68,0.23-0.93c-0.31,0.38-0.14-0.53-0.34-0.59
		c0.14-0.3,0.22-0.29,0.29-0.08c0.11-1.18,0.68-2.54,0.77-3.71c0.09,0.04,0.12,0.31,0.25,0.05c-0.35,0.17,0.08-0.53-0.14-0.51
		c-0.11,0.17-0.18,0.12-0.22-0.02c0.12-0.36,0.24-0.72,0.34-1.09c0.31-0.11-0.15,0.67,0.07,0.67c0.13-0.69,0.73-1.74,0.43-2
		c-0.18,0.68-0.17,0.97-0.49,1.29c0.01-0.02,0.01-0.04,0.02-0.06c0.14-0.6,0.25-1.22,0.34-1.86c0.13,0,0.24-0.06,0.35-0.15
		c0,0.01,0,0.01-0.01,0.02c0.24,0.34,0.19,0.78,0.09,1.23c-0.11,0.45-0.29,0.9-0.24,1.31c-0.21,0.36-0.32,0.32-0.44,0.4
		c0.22,0.31-0.05,1.76-0.16,2.07C128.32,87.42,128.71,86.68,128.54,86.58z M128.52,94.44c0.27-0.53,0.09-0.81,0.39-1.08
		C129.32,93.29,128.8,94.74,128.52,94.44z M128.94,93.02c0.35-0.24,0.64-0.89,1.03-0.89C129.67,92.71,129.36,93.28,128.94,93.02z
		 M132.36,65.89C132.36,65.88,132.36,65.88,132.36,65.89c0,0,0,0.01,0,0.02C132.36,65.9,132.36,65.9,132.36,65.89z M132.74,65.18
		c0.07-0.25,0.08,0.69,0.17,1.3C132.54,66.32,132.62,65.58,132.74,65.18z"/>
	<path class="st0" d="M40.01,14.33c-0.24,0.37-1.79,0.86-1.88,1.02C38.47,15.31,40.52,14.41,40.01,14.33z"/>
	<path class="st0" d="M73.74,2.7c-0.1-0.2-0.93-0.09-0.99-0.27c1.06-0.23,1.74,0.5,2.82,0.6c0.04-0.1,0-0.24,0.19-0.23
		c0.16,0.14,0.25,0.29,0.46,0.41c1.14-0.05,3.25,0.62,4.21,0.33c-0.24-0.19-1.22-0.27-0.6-0.47C79,2.9,79.69,3.31,79.27,3.33
		c-0.02-0.07-0.12-0.12-0.32-0.14c0.3-0.34-1.09-0.23-1.64-0.51c-0.43,0.05,0.27,0.3-0.21,0.31c-0.34-0.33-1.03-0.49-1-0.14
		c0.11-0.11-1.34-0.15-0.81-0.37c-1.8-0.17-1.61-0.35-3.02-0.33c0.13,0.31,0.01,0.21,0.14,0.52C73.07,2.53,73.3,2.81,73.74,2.7z"/>
	<path class="st0" d="M92.89,15.62c0.41,0.11,0.97,0.43,1.3,0.43C93.86,15.84,93.1,15.5,92.89,15.62z"/>
	<path class="st0" d="M99.1,15.93c-0.16,0.26-0.8-0.27-1.11-0.26C98.16,15.99,99.38,16.33,99.1,15.93z"/>
	<path class="st0" d="M103.41,13.38c0.08-0.12,0.42,0.2,0.52,0.12c-0.25-0.11-0.32-0.57,0.03-0.38c0.18,0.27,0.4,0.09,0.84,0.19
		c-0.82-0.27-2-1.06-2.37-0.92C103.05,12.51,103.79,13.22,103.41,13.38z"/>
	<path class="st0" d="M103.77,21.8c-0.21,0.17,0.1,0.41,0.46,0.66c-0.08-0.4,0.76,0.42,0.39-0.02c-0.31-0.22-0.48-0.15-0.44-0.43
		c0.07,0.05,0.18,0.05,0.05-0.07c-0.12,0.04-0.24,0.06-0.4,0.02C103.86,21.91,103.88,21.86,103.77,21.8z"/>
	<path class="st0" d="M104.88,22.83c0.7,0.82,1.54,2.16,2.42,2.29c-0.08-0.09-0.22-0.2-0.17-0.27c0.36,0.28,0.57,0.16,1.01,0.68
		c0.18-0.14-0.09-0.38-0.29-0.6c-0.56-0.26-2.58-1.59-2.4-2.1C105.26,22.84,105.02,22.72,104.88,22.83z"/>
	<path class="st0" d="M110.74,20.02c0.22,0.53,1.94,1.46,1.93,2.07c0.29,0.26,0.46,0.22,0.79,0.61c-0.15,0.03-0.32-0.01-0.47,0.03
		c0.26,0.18,0.53,0.37,0.79,0.6c0.25,0.24,0.5,0.5,0.76,0.78c0.51,0.55,1.02,1.16,1.53,1.76c1.03,1.21,2.08,2.4,3.1,3.25
		c0.1,1.04,1.51,1.32,1.37,2.08c0.14-0.25,0.06-0.19,0.33-0.26c-0.84-0.66-1.62-1.99-1.54-2.51c-0.03-0.02-0.03-0.06,0.04-0.14
		c-0.03,0.03-0.03,0.09-0.04,0.14c0.1,0.07,0.61-0.08,0.62,0.47c0.29,0.06-0.02-0.55,0.26-0.22c0.09,0.33,0.15,0.64,0.18,0.93
		c0.26,0.29,0.5,0.48,0.74,0.69c-0.06,0.08-0.21,0.13-0.1,0.29c0.3-0.42,0.62,0.61,0.77,0.88c0.06-0.42-0.55-1.17-0.44-1.57
		c-0.32,0.06-0.22-0.22-0.58-0.62c0.06-0.08,0.2-0.13,0.1-0.29c-0.15-0.05-0.32-0.73-0.79-0.88c0.18,0.31,0.12,0.37-0.09,0.3
		c-0.4-0.75-1.19-1.34-1.53-2.24c-0.41,0.26-0.65-0.35-1.03-0.88c-0.11,0.07-0.19,0.26-0.36,0.11c-0.21-0.27-0.06-0.4-0.09-0.6
		c0.18,0.23,0.79,0.62,0.52,0.2c-0.19,0.15-0.73-0.9-0.92-0.75c0.26,0.26,0.31,0.44,0.16,0.55c-0.12-0.45-0.37-0.14-0.74-0.68
		c-0.2,0.11-0.39,0.27-0.65,0.18c0.03-0.6-0.75-0.55-1.14-0.96c-0.17-0.48-0.32-0.89-0.2-1.25c-0.43-0.31-0.5-0.47-0.67-0.5
		c0.24,0.25,0.09,0.39,0.14,0.59c-0.88-0.56-1.09-0.86-1.85-1.67C111.34,20.52,111.03,20.4,110.74,20.02z M117.35,26.3
		c0.18,0.09,0.38,0.25,0.62,0.56c-0.09,0.43-0.61-0.7-0.7-0.26C117.15,26.44,117.29,26.39,117.35,26.3z"/>
	<path class="st0" d="M110.09,27.21c0.19,0.29,0.13,0.51,0.12,0.74c0.24,0.34,0.33,0.1,0.53,0.32c-0.11,0.1-0.07,0.24,0.03,0.4
		c0.29-0.5-0.48-0.88-0.35-1.37C110.34,27.39,110.18,27.17,110.09,27.21z"/>
	<path class="st0" d="M127.87,44.62c-0.06-0.86,0.56,0.25,0.62-0.28c-0.28,0.09-0.54-0.49-0.82-0.53
		C128.05,44.32,127.59,44.19,127.87,44.62z"/>
	<path class="st0" d="M128.1,47.56c-0.12,0-0.23-0.16-0.37-0.02c0.19,0.44,0.05,0.58,0.05,0.85c0.1-0.07,0.45,0.71,0.35,0.21
		C127.66,48.05,128.19,47.93,128.1,47.56z"/>
	<path class="st0" d="M123.47,106.23c0.29-0.2,0.74-0.15,0.62-0.22C124.21,105.57,123.65,105.84,123.47,106.23z"/>
	<path class="st0" d="M118.05,113.93c-0.41,0.51-0.93,0.74-0.91,1.17c0.29-0.18,0.88-0.72,0.77-0.23c0.1-0.42,1.29-1.2,0.97-1.14
		C118.55,113.98,117.71,114.62,118.05,113.93z"/>
	<path class="st0" d="M123.85,120.56c-0.02,0.2-0.02,0.18-0.1,0.88c0.49-0.67,0.92-1.32,0.65-1.64
		C124.26,120.04,123.69,120.47,123.85,120.56z"/>
	<path class="st0" d="M102.93,128.62c-0.23,0.18-0.44,0.12-0.43,0.27c0.58-0.17-0.48,0.44-0.43,0.57c0.38-0.12,1.29-0.74,1.1-0.79
		C102.57,129.06,102.8,128.85,102.93,128.62z"/>
	<path class="st0" d="M83.71,136.47c0.24,0.02,0.63-0.09,0.72,0.07c-0.76,0.24-2.04,0.07-1.62,0.43c0.23-0.26,1.01-0.16,1.21-0.06
		c0.14-0.23,1.62-0.91,1.17-0.76C84.49,136.52,83.94,136.2,83.71,136.47z"/>
	<path class="st0" d="M79.8,136.69c0.01,0.4-0.61,0.85,0.07,1.02c-0.09-0.15,0.18-0.21,0.27-0.32c-0.53-0.09-0.46-0.59,0.5-0.74
		C80.74,136.34,80.11,136.66,79.8,136.69z"/>
	<path class="st0" d="M76.93,137.53c-0.33,0.13,0.38,0.28,0.28,0.56l-0.66,0.11l-0.08-0.42c-0.5,0.35-1.48,0.41-1.07,0.68
		c-0.27-0.09-0.69,0.04-0.82,0.21c1.28-0.08,1.6-0.44,2.66-0.42c0-0.1,0.01-0.2,0.3-0.22C77.04,137.88,77.51,137.51,76.93,137.53z"
		/>
	<path class="st0" d="M69.84,142.32c0.33,0.11,1.17-0.07,0.92,0.37C72.01,142.58,70.24,142.02,69.84,142.32z"/>
	<path class="st0" d="M62.91,137.81c0.19,0.05,0.37,0.11,0.49,0.19C65.23,137.93,63.27,137.79,62.91,137.81z"/>
	<path class="st0" d="M61.91,138.19c0.14,0.26,0.89,0.36,1.32,0.31c-0.12-0.19-0.72-0.34-0.32-0.52c-0.88-0.1-1.41,0-1.98,0.08
		c0.48,0.31-0.49,0.29-0.19,0.41c0.22-0.11,0.79-0.08,1,0.05C61.95,138.32,61.66,138.25,61.91,138.19z"/>
	<path class="st0" d="M59.64,137.39c0.01,0.21-0.27,0.26-0.51,0.29c-0.03-0.18-0.72-0.12-0.8-0.28c-0.18,0.05-0.08,0.3-0.51,0.19
		c-2.84-0.44-4.96-0.71-6.93-1.28c-0.99-0.26-1.96-0.52-2.99-0.79c-0.51-0.14-1.04-0.28-1.59-0.43c-0.54-0.19-1.1-0.38-1.7-0.59
		c-0.1,0.56-0.51-0.26-0.83-0.11c0.17,0.53,0.55,0.57,1.27,0.98c0.22-0.21-0.36-0.31-0.37-0.49c0.21,0.08,0.36,0.08,0.49,0.08
		c-0.32,0.28,0.74,0.51,0.17,0.6c1.17,0.32,2.49,0.49,3.92,0.8c0.72,0.15,1.46,0.31,2.25,0.49c0.39,0.09,0.79,0.19,1.21,0.29
		c0.42,0.08,0.84,0.16,1.28,0.25c0.01-0.15,0.16-0.2,0.36-0.2c0.37,0.27,0.42,0.15,1.14,0.26c-0.22,0.22-0.14,0.3,0.27,0.47
		c0.04-0.09,0-0.24,0.2-0.23c0.85,0.12,1.98,0.17,2.97,0.13c0.89-0.04,1.66-0.21,2.06-0.37C60.68,137.51,60.02,137.37,59.64,137.39z
		"/>
	<path class="st0" d="M38.71,123.53c0.57,0.22,1.2,0.65,0.55,0.54c0.31,0.24,0.72,0.51,0.97,0.36c0.41,0.39,0.46,1.02,1.1,1.17
		c-0.05,0.14-0.13,0.23-0.27,0.25c0.47,0.15,0.71,0,1.1,0.04c0.25,0.15-0.02,0.35,0.44,0.48c0.21-0.15,0.97,0.04,1.68,0.31
		c-0.04,0.04-0.08,0.09-0.09,0.13c-0.01,0.11,0.07,0.22,0.1,0.34c0.07-0.07,0.18-0.14,0.18-0.21c0-0.06-0.01-0.13-0.04-0.19
		c0.79,0.33,1.46,0.74,1.18,0.91c0.41,0.1,0.82,0.26,1.22,0.43c0,0-0.01,0-0.01,0c-0.05,0.01-0.1,0.08-0.15,0.12
		c-0.09,0.08-0.05,0.2,0.12,0.24c0.37,0.09,0.79-0.02,1.08,0.33c0.34-0.24,0.63-0.13,0.98,0.05c0.2,0.1,0.35,0,0.43-0.21
		c0.03-0.01,0.05-0.01,0.08-0.02c-0.02-0.01-0.04-0.02-0.06-0.03c0.02-0.07,0.02-0.14,0.03-0.23c0.25,0.05,0.53,0.12,0.57-0.04
		c-0.18-0.04-0.38-0.08-0.57-0.12c-0.03-0.18-0.11-0.43-0.21-0.36c-0.14,0.1-0.29,0.16-0.44,0.2c-0.14-0.03-0.27-0.06-0.41-0.1
		c-0.55-0.18-1.12-0.38-1.67-0.59c-1.1-0.41-2.16-0.81-2.99-1.11c0.1-0.07,0.22-0.13,0.37-0.14c0.42,0.13,0.57,0.56,0.83,0.3
		c-0.43-0.15-0.62-0.34-0.91-0.51c-0.22,0.19-0.62,0.1-1.01-0.05c-0.39-0.17-0.78-0.38-1.04-0.35c0.21-0.02,0.29-0.21,0.16-0.39
		c-0.57-0.19-1.31-0.62-1.62-1.04c0.08-0.1,0.28-0.03,0.37-0.11C39.93,123.54,39.57,123.7,38.71,123.53z"/>
	<path class="st0" d="M42.46,130.22c0.8,0.09,1.49,0.17,2.25,0.72c0.04-0.11-0.01-0.2-0.07-0.29c0.25,0.09,0.4,0.07,0.49-0.01
		c-0.93-0.21-1.36-0.44-2.27-0.63C43.83,130.34,42.69,130.22,42.46,130.22z"/>
	<path class="st0" d="M41,129.19c-0.25-0.11-0.44-0.22-0.54-0.34c-0.25,0.16,0.48,0.83,0.3,0.51
		C40.37,129.13,41.03,129.34,41,129.19z"/>
	<path class="st0" d="M37.68,129.7c-0.39,0.47,1.32,0.85,1.38,1.3l0.06-0.16c0.09,0.04,0.18,0.07,0.18-0.01
		c-0.34-0.21-0.83-0.4-1.43-0.76C37.91,129.95,38.01,129.82,37.68,129.7z"/>
	<path class="st0" d="M32.72,133.52c0.16,0.02,0.66-0.12,0.34-0.3c-0.41,0.12-0.6-0.18-0.93-0.09c0.26,0.15,0.37,0.27,0.39,0.4
		c-0.55-0.14-0.52-0.27-1.07-0.59c-0.11,0.12,0.08,0.26,0,0.39c-0.47-0.41-0.95-0.35-1.34-0.49c0.46,0.24,0.38,0.44,0.83,0.69
		c0.58-0.06,0.95,0.3,2.02,0.69c0.03-0.17,0.29-0.05,0.43-0.08C33,133.93,32.92,133.73,32.72,133.52z"/>
	<path class="st0" d="M36.88,117.72c0.34,0.08,0.47,0.5,0.58,0.35c-0.51-0.34-0.22-0.42-0.25-0.64
		C36.94,117.5,36.88,117.41,36.88,117.72z"/>
	<path class="st0" d="M106.96,15.62c0.58,0.47,0.85,0.34,1.28,0.52c0.34,0.34,0.36,0.63,0.56,0.95c0.33,0.11,0.68,0.41,1.08,0.75
		c0.38,0.37,0.81,0.78,1.31,1.1c-0.64-0.51-0.6-0.84-0.75-1.22c-0.59-0.23-0.81-0.62-1.35-0.73c0.1-0.12,0-0.22-0.22-0.27
		c0.15-0.15,0.27-0.31-0.02-0.54c-0.44-0.03-1.08-0.46-1.52-0.5c-0.07-0.19-0.08-0.37-0.22-0.58c-0.06,0.1-0.17,0.11-0.28,0.11
		C107.09,15.38,107.11,15.52,106.96,15.62z"/>
	<path class="st0" d="M45.69,136.33c-0.33-0.24-0.72-0.47-1.13-0.68c-0.83-0.42-1.79-0.75-2.71-0.78c-0.06,0.7-0.74,0.75-1.65,0.57
		c0.2-0.38-0.82-0.63-0.91-0.98c-0.08,0.37-0.64-0.03-0.62,0.18c-0.04-0.15-0.17-0.3-0.37-0.45c-0.11,0.41-1.06-0.2-1.68-0.41
		c-0.11,0.3,0.08,0.3-0.2,0.47c0.62,0.58,2.18,1.36,2.68,1.67c1.62,0.12,3.36,2.01,5.42,2.48c1.38,0.3,2.28-0.3,2-1.44
		C46.31,136.77,46.02,136.56,45.69,136.33z"/>
</g>
</svg>
