<?xml version="1.0" encoding="utf-8"?>
<!-- Generator: Adobe Illustrator 26.0.1, SVG Export Plug-In . SVG Version: 6.00 Build 0)  -->
<svg version="1.1" id="Layer_1" xmlns="http://www.w3.org/2000/svg" xmlns:xlink="http://www.w3.org/1999/xlink" x="0px" y="0px"
	 viewBox="0 0 283.46 283.46" style="enable-background:new 0 0 283.46 283.46;" xml:space="preserve">
<style type="text/css">
	.st0{fill:#59994B;}
	.st1{fill:#D31C16;}
	.st2{fill:#B71817;}
	.st3{fill:#E52821;}
	.st4{opacity:0.33;fill:#FFFFFF;}
	.st5{fill:#4D7744;}
	.st6{fill:#C6C6C6;}
	.st7{opacity:0.33;fill:#C6C6C6;}
</style>
<path class="st0" d="M135.8,59.47c-0.2-10.55,0.98-21.33,5.38-30.92c0.34-0.75,0.85-1.59,1.67-1.65c0.49-0.03,0.94,0.23,1.36,0.49
	c0.89,0.56,1.77,1.13,2.64,1.72c-1.92,1.61-3.1,3.92-4.07,6.24c-2.76,6.62-4.15,13.8-4.11,20.97c0.01,1.35,1.31,8.45,0.34,9
	C136.26,66.88,135.81,60.44,135.8,59.47z"/>
<path class="st1" d="M22.93,71.31c-5.08,8.07-5.67,18.1-5.64,27.63c0.06,16.52,1.56,32.99,3.05,49.44
	c0.74,8.16,1.49,16.36,3.33,24.34c1.95,8.48,5.12,16.62,8.55,24.61c6.25,14.52,13.46,28.64,21.94,41.98
	c5.89,9.27,13.09,18.69,23.54,22.06c1.06,0.34,2.69,0.24,2.71-0.87c0.01-0.55-0.45-0.99-0.87-1.34
	c-11.53-9.81-20.22-22.9-24.79-37.33c-2.76-8.73-4.03-17.87-4.85-27c-1.59-17.64-1.53-35.66,3.09-52.76
	c2.47-9.13,6.2-17.86,9.04-26.88c2.84-9.02,4.8-18.54,3.55-27.91C62.91,67,37.15,48.72,22.93,71.31z"/>
<path class="st2" d="M55.27,83.57c-0.36,7.9-3.28,15.41-5.73,22.93c-11.86,36.47-12.73,76.92,0.4,112.95
	c5.87,16.12,15.2,31.99,30.22,40.28c-15.99-16.52-25.43-38.78-28.32-61.59s0.5-46.14,7.71-67.97c2.67-8.08,5.87-16.02,7.66-24.34
	c1.8-8.32,2.13-17.21-0.89-25.16c-3.36-8.87-12.26-18.1-22.06-19.35c2.31,2.45,5.31,3.96,7.26,6.92
	C54.45,72.68,55.5,78.34,55.27,83.57z"/>
<path class="st3" d="M25.61,74.32c-3.01,4.08-4.29,9.17-5.08,14.18c-1.42,9.02-1.48,18.25-0.17,27.28
	c0.93,6.39,2.53,12.67,3.28,19.09c0.92,7.89,0.51,15.88,1.08,23.81c0.73,10.13,3.05,20.15,6.87,29.57c1.95,4.8,4.47,9.67,8.79,12.53
	c-0.48-9.81-6.19-18.68-7.44-28.43c-1.67-12.98,4.69-25.58,5.98-38.59c1.03-10.39-1.1-21.38,3.06-30.96
	c2.1-4.84,5.72-9.03,7.03-14.15c1.63-6.38-1.15-13.43-6.24-17.47C36.78,66.42,30.12,68.19,25.61,74.32z"/>
<path class="st4" d="M27.88,85.24c-0.73,3.72-0.86,7.52-0.99,11.31c-0.27,7.97-0.54,15.95-0.81,23.92c-0.03,0.89-0.05,1.82,0.3,2.63
	c0.35,0.82,1.2,1.5,2.08,1.35c1.13-0.18,1.65-1.49,1.89-2.6c2.1-9.55-0.61-20.47,4.8-28.62c1.59-2.4,3.88-4.55,4.25-7.4
	c0.34-2.64-2.12-7.18-5.02-7.7C30.45,77.43,28.48,82.22,27.88,85.24z"/>
<path class="st4" d="M28.22,145.81c0.14,1.04,0.68,2.36,1.72,2.22c0.86-0.12,1.19-1.16,1.33-2.02c0.5-3.02,1-6.04,1.5-9.07
	c0.18-1.11,0.36-2.3-0.1-3.33c-1.74-3.85-4.05-0.06-4.54,1.7C27.26,138.45,27.79,142.64,28.22,145.81z"/>
<path class="st0" d="M49.01,35.84c-1.18-3.54-2.97-7.16-7.2-9.86c0.64-1.19,2.87-2.05,5.09-1.97c1.82,0.07,4.81,9.8,5.18,10.95
	c1.25,3.85,1.93,7.76,2.05,11.67c0.12,3.91-0.32,7.83-1.33,11.7c-0.7,2.7-1.07,7.15-3.89,9.39c-2.67-3.45,1.14-9.17,1.71-12.71
	C51.64,48.62,51.11,42.15,49.01,35.84z"/>
<path class="st0" d="M35.86,58.77c-1.81,0.81-3.63,1.63-5.32,2.69c-3.14,1.98-5.75,4.81-7.47,8.1c2.74,0.19,5.5,0.1,8.23-0.28
	c3.62,1.67,7.43,2.94,11.32,3.78c0.94,0.2,1.97,0.44,2.53,1.22c0.72-0.6,1.44-1.21,2.17-1.81c3.85,3.84,9.2,6.13,14.63,6.27
	c0.53,0.01,1.07,0.01,1.55,0.22c1.18,0.51,1.64,2.08,2.84,2.55c0.12-4.83-2.99-9.16-6.57-12.4c-0.42-0.38-0.87-0.78-1.09-1.31
	c-0.24-0.6-0.15-1.28-0.1-1.93c0.22-3.02-0.82-6.11-2.82-8.38c-1.81-2.06-5.45-4.35-8.33-3.89c-1.83,0.29-3.94,1.74-5.64,2.5
	C39.83,56.99,37.85,57.88,35.86,58.77z"/>
<path class="st5" d="M54.11,59.29c-0.17,1.84-1.34,3.5-2.9,4.48c-1.56,0.98-3.47,1.31-5.31,1.16c3.35,1.09,6.75,2.21,9.63,4.22
	c2.89,2.02,5.23,5.1,5.5,8.61c0.02,0.31,0.03,0.63,0.18,0.9c0.12,0.24,0.34,0.42,0.54,0.59c1.18,0.98,2.37,1.97,3.55,2.95
	c1.13,0.94,2.35,2.08,2.33,3.54c-0.2-2.94-0.4-5.91-1.17-8.76s-2.14-5.61-4.34-7.57c-0.95-0.84-2.09-1.58-2.58-2.75
	c-0.48-1.13-0.26-2.42-0.36-3.65c-0.16-1.99-1.2-3.84-2.59-5.27c-1.15-1.18-2.65-2.33-4.17-2.97c0.06,0.66,0.93,1.29,1.25,1.96
	C54.03,57.53,54.19,58.42,54.11,59.29z"/>
<path class="st1" d="M118.69,88.19c-2.56,11.24-0.53,23.24,2.57,34.29c3.1,11.05,7.27,21.74,9.12,33.18
	c2.45,15.08,0.75,30.7,2.46,45.92c2.23,19.82,10.21,39.36,6.94,58.98c-0.21,1.24-0.39,2.73,0.4,3.58c1.33,1.42,3.24-0.74,3.98-2.67
	c8.58-22.36,1.09-48.97,5.94-72.86c2.37-11.69,7.63-22.32,10.09-33.98c1.29-6.12,1.78-12.43,2.27-18.72
	c0.49-6.21,0.97-12.42,1.46-18.63c0.61-7.85,1.23-15.78,0.36-23.6c-0.87-7.82-3.36-15.63-8.14-21.11
	C143.26,57.79,122.89,69.79,118.69,88.19z"/>
<path class="st2" d="M152.47,77.17c4.21,7.82,4.25,17.71,4.14,26.99c-0.2,17.37-0.46,35.06-5.14,51.52
	c-1.74,6.12-4.07,12.01-5.58,18.22c-1.52,6.28-2.17,12.83-2.24,19.37c-0.13,12.1,1.7,24.09,2.32,36.17
	c0.62,12.07-0.08,24.68-4.88,35.35c3.17-0.68,4.54-5.09,5.31-8.8c0.85-4.08,1.71-8.17,2.3-12.31c2.31-16.22,0.52-32.97,2.82-49.19
	c2.73-19.19,11.05-36.75,13.92-55.91c1.44-9.62,1.47-19.45,1.26-29.21c-0.16-7.24-0.45-14.56-2.13-21.53
	c-1.68-6.97-4.88-13.63-9.86-17.82c-3.56-2.99-9.59-5.55-13.82-3.43C144.9,70.41,149.4,71.47,152.47,77.17z"/>
<path class="st3" d="M119.24,96.66c-0.3,5.2,1.5,10.27,3.83,14.69c2.33,4.41,5.23,8.39,7.51,12.84c7.56,14.75,7.68,33.23,5.63,50.32
	c-1.15,9.57-2.87,19.58-0.16,28.7c0.39,1.31,1.5,2.83,2.46,2.04c-0.04-5.62-0.07-11.23-0.11-16.85c-0.03-5.08-0.06-10.19,0.77-15.17
	c0.77-4.57,2.24-8.92,3.45-13.36c1.78-6.57,2.97-13.51,2.29-20.36c-0.62-6.26-2.77-12.17-3.75-18.37
	c-1.31-8.29-0.46-17.05,2.41-24.77c1-2.69,2.27-5.47,1.96-8.38c-0.46-4.31-4.36-7.13-8.02-7.18
	C130.05,80.7,119.79,86.99,119.24,96.66z"/>
<path class="st4" d="M125.06,97.93c0.2,3.18,1.55,6.08,2.77,8.92c2.13,4.99,3.92,10.17,5.37,15.49c0.35,1.29,1.13,2.9,2.23,2.51
	c0.64-0.22,0.97-1.07,1.12-1.84c0.99-4.93-1.62-9.75-2.72-14.65c-0.71-3.14-0.79-6.48-0.24-9.66c0.24-1.41,0.61-2.81,0.61-4.25
	C134.22,86.69,124.58,90.47,125.06,97.93z"/>
<path class="st4" d="M138.62,149.96c-0.04,0.83,0.05,1.91,0.73,2.13c0.66,0.21,1.2-0.64,1.46-1.39c1.13-3.22,1.16-6.81,1.15-10.3
	c0-1.86-0.01-3.72-0.02-5.58c-0.03-4.64-4.3-6.76-4.51-1.22C137.22,138.89,138.88,144.45,138.62,149.96z"/>
<path class="st0" d="M128.48,78.31c0.7-0.46,1.87-0.78,2.16,0c1.24-2.4,4.42-2.84,7.11-2.99c2.64-0.15,5.29-0.29,7.93-0.44
	c1.65-0.09,3.8,0.18,4.16,1.79c0.2-1.39,2.03-1.76,3.44-1.67c2.55,0.17,5.06,0.73,7.44,1.67c-1.29-2.56-3.09-4.86-5.26-6.73
	c-0.62-0.54-1.28-1.05-1.76-1.71c-0.39-0.54-0.64-1.17-0.94-1.77c-2.12-4.12-6.81-6.26-11.35-7.21c-2.54-0.53-5.24-0.77-7.7,0.08
	c-3.91,1.36-6.43,5.22-7.7,9.15c-0.45,1.4-0.79,2.84-1.4,4.18c-0.81,1.77-2.06,3.29-3.01,4.99c-1.26,2.25-1.97,4.8-2.06,7.38
	C119.59,82.7,126.68,79.5,128.48,78.31z"/>
<path class="st5" d="M142.53,63.48c1.03,2.72-0.42,6.3-3.24,7.05c2.21-0.45,4.48-0.9,6.71-0.56c2.23,0.34,4.45,1.64,5.25,3.75
	c0.1,0.27,0.19,0.56,0.4,0.76c0.23,0.22,0.57,0.29,0.88,0.36c3.21,0.66,6.3,1.95,9.04,3.76c-0.34-3.57-2.35-6.94-5.33-8.94
	c-0.58-0.39-1.21-0.75-1.65-1.29c-0.52-0.65-0.71-1.49-1.02-2.26c-0.9-2.25-2.85-3.96-5.02-5.05c-2.17-1.09-4.56-1.65-6.92-2.19
	c-1.65-0.38-4.76-0.29-6.62,0.13C137.9,59.17,141.28,60.21,142.53,63.48z"/>
<path class="st6" d="M222.7,80.15c-2.7,4.79-3.88,10.48-4.47,16.11c-1.48,14.07,0.48,28.58,5.61,41.52
	c2.72,6.85,6.3,13.26,8.63,20.3c2.08,6.28,3.12,12.94,3.88,19.59c0.96,8.35,1.49,16.84,0.45,25.19c-1.04,8.34-3.74,16.58-8.66,22.93
	c-7.31,9.46-18.64,13.75-29.68,15.4c-3.26,2.47,7.36,1.92,11.03,0.42c6.6-2.7,13.1-5.69,19.49-8.95
	c6.71-3.43,13.44-7.27,18.57-13.23c6.26-7.26,9.64-17.11,11.46-27.01c1.2-6.5,1.8-13.15,1.78-19.79c-0.03-9.62-1.33-19.22-0.9-28.82
	c0.65-14.35,5.18-28.2,5.93-42.54c0.31-5.82-0.09-11.95-2.75-16.95c-2.89-5.41-8.13-8.81-13.57-10.39
	C239.7,71.07,228.83,69.27,222.7,80.15z"/>
<path class="st6" d="M199.81,244.6c1.24,0.55,2.63,0.42,3.95,0.24c13.6-1.9,26.32-8.72,37.89-16.99c4.2-3,8.35-6.26,11.48-10.61
	c4.03-5.6,6.1-12.64,7.8-19.59c1.49-6.12,2.75-12.35,3.05-18.69c0.27-5.72-0.25-11.45-0.34-17.18c-0.35-20.98,4.94-41.71,4.35-62.68
	c-0.11-3.79-0.42-7.62-1.58-11.17c-1.96-5.96-6.32-10.75-11.47-13.36c-5.16-2.6-11.04-3.11-16.6-2c5.96,1.3,12.78,3.31,15.32,9.52
	c1.67,4.07,0.96,8.79,0.37,13.22c-2.13,16.16-2.13,32.6-1.38,48.92c0.64,14.05,1.82,28.19,0.22,42.15
	c-1.59,13.96-6.29,28-15.57,37.42c-6.85,6.95-15.64,10.87-24.23,14.65c-4.16,1.83-8.44,3.69-12.91,3.76
	c-0.78,0.01-1.62-0.36-2.27-0.42C197.9,243.08,198.74,244.12,199.81,244.6z"/>
<path class="st6" d="M227.3,82.78c-2.75,4.34-3.05,9.75-3.19,14.89c-0.1,3.74-0.16,7.52,0.64,11.17c1,4.55,3.28,8.7,5.38,12.86
	c7.03,13.91,12.37,29.1,12.16,44.68c-0.09,6.8-1.23,13.62-0.42,20.37c0.4,3.35,1.28,6.63,1.55,9.99c0.27,3.36-0.14,6.93-2.08,9.69
	c-0.59,0.84-1.35,1.9-0.83,2.79c0.42,0.72,1.51,0.79,2.22,0.34c0.71-0.45,1.1-1.25,1.41-2.02c3.78-9.41-0.18-20,0.04-30.14
	c0.14-6.66,2.11-13.14,2.98-19.75c1.15-8.79,0.33-17.84-2.39-26.28c-1.74-5.4-4.24-10.55-5.6-16.06c-0.56-2.26-0.92-4.63-0.42-6.9
	c0.85-3.89,3.99-6.77,6.68-9.7c2.69-2.93,5.2-6.72,4.35-10.61c-0.83-3.8-6.29-7.94-9.54-9.83C235.74,75.66,229.85,78.74,227.3,82.78
	z"/>
<path class="st7" d="M230.26,89.26c-0.43,2.12-0.86,4.24-1.29,6.36c-0.95,4.7-1.91,9.47-1.54,14.25s2.22,9.66,5.99,12.63
	c0.31,0.24,0.64,0.48,1.03,0.55c1.07,0.2,1.97-1.01,1.92-2.09c-0.05-1.09-0.71-2.04-1.29-2.95c-2.26-3.56-3.7-7.73-3.56-11.95
	c0.14-4.22,1.97-8.46,5.3-11.05c3.95-3.08,8.39-6.3,3.07-10.99C235.02,79.73,231.27,84.29,230.26,89.26z"/>
<path class="st7" d="M239.36,134.41c1.83,3.26,0.92,7.89,3.69,10.41c0.96-1.66,0.85-3.71,0.57-5.61c-0.33-2.18-0.85-4.34-1.57-6.42
	c-0.39-1.13-2.6-4.9-4.49-3.61C235.94,130.27,238.79,133.4,239.36,134.41z"/>
<path class="st6" d="M238.74,43.99c-1.88-3.21-4.39-6.39-9.09-8.16c0.38-1.3,2.38-2.6,4.57-2.98c1.79-0.31,6.73,8.6,7.33,9.64
	c2.02,3.51,3.49,7.19,4.42,10.99c0.93,3.8,1.31,7.73,1.12,11.73c-0.13,2.78,0.44,7.22-1.86,9.99c-3.33-2.82-0.78-9.21-0.96-12.79
	C243.96,55.95,242.1,49.73,238.74,43.99z"/>
<path class="st6" d="M230.62,69.15c-1.61,1.17-3.22,2.35-4.64,3.73c-2.66,2.59-4.63,5.89-5.63,9.47c2.72-0.38,5.4-1.04,7.99-1.98
	c3.89,0.88,7.87,1.33,11.86,1.35c0.96,0,2.02,0.02,2.73,0.67c0.58-0.74,1.16-1.48,1.74-2.22c4.56,2.96,10.27,4.09,15.62,3.1
	c0.52-0.1,1.05-0.21,1.57-0.11c1.26,0.25,2.03,1.69,3.3,1.9c-0.88-4.75-4.82-8.34-8.99-10.77c-0.49-0.29-1.01-0.58-1.33-1.06
	c-0.36-0.54-0.41-1.22-0.5-1.87c-0.41-3-2.07-5.8-4.49-7.62c-2.2-1.64-6.23-3.13-8.96-2.08c-1.73,0.67-3.5,2.52-5,3.61
	C234.13,66.58,232.37,67.86,230.62,69.15z"/>
<path class="st6" d="M248.58,65.88c0.21,1.83-0.59,3.7-1.91,4.98c-1.33,1.28-3.13,2-4.95,2.23c3.5,0.37,7.06,0.76,10.3,2.14
	c3.24,1.37,6.17,3.91,7.16,7.28c0.09,0.3,0.16,0.61,0.36,0.84c0.17,0.21,0.42,0.34,0.65,0.46c1.36,0.72,2.72,1.44,4.08,2.16
	c1.29,0.68,2.73,1.55,3.01,2.98c-0.8-2.84-1.62-5.7-2.96-8.33c-1.34-2.63-3.25-5.04-5.82-6.5c-1.1-0.63-2.37-1.12-3.1-2.16
	c-0.71-1.01-0.76-2.32-1.11-3.5c-0.57-1.91-1.96-3.51-3.62-4.62c-1.37-0.92-3.07-1.73-4.7-2.04c0.19,0.63,1.18,1.07,1.63,1.66
	C248.14,64.17,248.48,65.01,248.58,65.88z"/>
</svg>
