<?xml version="1.0" encoding="utf-8"?>
<!-- Generator: Adobe Illustrator 26.0.1, SVG Export Plug-In . SVG Version: 6.00 Build 0)  -->
<svg version="1.1" id="Layer_1" xmlns="http://www.w3.org/2000/svg" xmlns:xlink="http://www.w3.org/1999/xlink" x="0px" y="0px"
	 viewBox="0 0 70.87 70.87" style="enable-background:new 0 0 70.87 70.87;" xml:space="preserve">
<style type="text/css">
	.st0{fill:#F4E1BE;}
	.st1{fill:#FFF6CF;}
	.st2{fill:#D9C09B;}
	.st3{opacity:0.6;fill:#E2C79C;}
	.st4{fill:#5B2824;}
	.st5{fill:#76413A;}
	.st6{fill:#8A4843;}
	.st7{fill:#67332F;}
	.st8{opacity:0.2;fill:#F2B8C3;}
	.st9{fill:#F2B8C3;}
</style>
<g>
	<path class="st0" d="M68.57,26.13C63.36,7.85,44.3-2.74,26,2.48C7.7,7.69-2.91,26.74,2.29,45.02C7.5,63.3,26.56,73.89,44.86,68.67
		C63.17,63.46,73.78,44.41,68.57,26.13z"/>
	<path class="st1" d="M67.31,26.49C62.31,8.9,43.97-1.29,26.36,3.73C8.75,8.75-1.46,27.07,3.55,44.66
		C8.56,62.25,26.9,72.44,44.51,67.42C62.11,62.4,72.33,44.08,67.31,26.49z"/>
	<path class="st0" d="M63.71,27.52C59.26,11.92,43,2.89,27.38,7.34c-15.61,4.45-24.67,20.7-20.22,36.3
		c4.44,15.59,20.7,24.63,36.32,20.18S68.15,43.11,63.71,27.52z"/>
	<path class="st2" d="M21.46,51.06c-3.27-14.48,6.61-29.04,22.06-32.52c5.73-1.29,11.43-0.88,16.49,0.89
		C53.14,8.99,40.05,3.72,27.38,7.34c-15.61,4.45-24.67,20.7-20.22,36.3c3.06,10.76,11.76,18.39,21.98,20.64
		C25.39,60.81,22.64,56.3,21.46,51.06z"/>
	<path class="st3" d="M68.57,26.13c-1.28-4.49-3.4-8.52-6.14-11.96c18.55,44.11-25.67,70.19-57.2,38
		c7.56,13.77,23.86,21,39.62,16.51C63.17,63.46,73.78,44.41,68.57,26.13z"/>
	<path class="st4" d="M62.38,27.9C58.15,13.03,42.65,4.42,27.76,8.66C12.88,12.9,4.25,28.39,8.48,43.26
		c4.24,14.87,19.74,23.48,34.62,19.24C57.99,58.25,66.62,42.76,62.38,27.9z"/>
	<path class="st5" d="M60.42,29.95c-1.38-4.84-3.42-9.15-6.92-12.06c-2.94-2.45-6.32-2.45-10.08-3.24
		c-4.33-0.91-9.09-2.26-13.65-0.59c-4.23,1.55-7.77,4.92-10.64,8.08c-3.33,3.67-5.46,7.63-6.45,12.46
		c-0.74,3.59-0.4,7.46,0.46,11.19c0.68,2.96,2.2,5.1,3.77,7.46c1.71,2.56,3.74,4.39,6.25,6.07c3.15,2.11,6.08,2.18,9.98,2.57
		c2.99,0.3,5.81,0.76,8.96-0.14c5.46-1.56,10.35-3.67,13.79-7.91C61.28,47.17,62.84,38.47,60.42,29.95z"/>
	<path class="st4" d="M14.4,52.25c0.94-0.9,4.08-9.94,6.03-12.27c2.66-3.19,5.86-5.92,3.98-4.9c-3.25,1.75-2.89,2.69-5.4,5.27
		c-2.51,2.59-4.6,4.16-6.78,4.34C10.05,44.88,14.4,52.25,14.4,52.25z"/>
	<path class="st4" d="M38.1,24.74c-3.56,2.56-6.26,4-7.27,9.9c-0.78,4.52-0.15,0.47,1.78-2.36c1.93-2.83,0.57-3.17,5.77-6.3
		C43.59,22.85,40.76,22.84,38.1,24.74z"/>
	<polygon class="st6" points="46.9,42.52 46.31,42.78 46.7,45 47.86,44.18 	"/>
	<polygon class="st6" points="26.21,16.93 25.59,16.72 24.39,18.63 25.8,18.8 	"/>
	<polygon class="st6" points="35.56,15.11 34.92,15.26 34.87,17.51 36.17,16.94 	"/>
	<polygon class="st6" points="25.39,45.61 24.76,45.76 24.7,48.01 26,47.44 	"/>
	<polygon class="st6" points="43.9,53.54 43.31,53.27 41.91,55.04 43.29,55.36 	"/>
	<polygon class="st7" points="52.95,52.53 53.32,51.99 51.82,50.3 51.27,51.61 	"/>
	<polygon class="st7" points="56.61,39.26 56.98,38.73 55.48,37.04 54.92,38.34 	"/>
	<polygon class="st7" points="37.01,56.18 36.96,55.54 34.73,55.16 35.12,56.53 	"/>
	<path class="st8" d="M23.81,54.9c-0.08-1.4,10.74-5.76,18.53-12.7c7.93-7.07,12.84-16.71,13.94-16.44
		c2.16,0.53,8.63,19.36-2.27,28.47C44.57,62.11,24.27,62.97,23.81,54.9z"/>
	<path class="st9" d="M55.64,53.06c-0.24-0.33-1.17-0.07-2.07,0.58c-0.9,0.66-1.43,1.46-1.19,1.79c0.24,0.33,1.17,0.07,2.07-0.58
		C55.35,54.19,55.88,53.39,55.64,53.06z"/>
	<path class="st9" d="M50.17,56.64c-0.21-0.35-0.83-0.38-1.39-0.05c-0.56,0.33-0.84,0.88-0.63,1.23c0.21,0.36,0.83,0.38,1.39,0.05
		C50.09,57.55,50.38,57,50.17,56.64z"/>
	<path class="st9" d="M59.7,42.44c-0.24-0.16-1.16,1.83-2.05,4.45c-0.9,2.62-1.42,4.87-1.18,5.04c0.24,0.16,2.56-2.32,3.45-4.94
		C60.81,44.36,59.94,42.6,59.7,42.44z"/>
	<path class="st8" d="M45.71,35.05c-0.91,0.66-2.34-1.9,0.8-4.4c3.15-2.5,5.69-6.52,6.18-7.15C53.19,22.88,51.86,30.59,45.71,35.05z
		"/>
	<path class="st8" d="M30.03,39.5c1-0.53,2.06,2.2-1.39,4.25c-3.45,2.05-6.52,5.69-7.1,6.24C20.96,50.54,23.33,43.08,30.03,39.5z"/>
	<path class="st8" d="M43,19.38c0.57,0.56-2.45,1.52-4.26,2.77c-3.05,2.1-5.28,3.66-6.18,4.14C31.61,26.8,38.01,19.19,43,19.38z"/>
	<polygon class="st6" points="37.45,41.83 36.81,41.91 36.52,44.15 37.88,43.71 	"/>
	<polygon class="st7" points="44.74,24.25 44.69,23.6 42.47,23.23 42.85,24.59 	"/>
	<polygon class="st7" points="38.24,33.17 37.79,32.71 35.84,33.85 37.01,34.65 	"/>
	<polygon class="st7" points="22.78,31.24 22.45,30.68 20.29,31.34 21.24,32.39 	"/>
	<path class="st4" d="M36.26,11.87c-1.3,0.94-3.16,3.77-5.89,6.19c-3.75,3.32-8.12,6.18-5.63,5.1c4.31-1.87,3.97-2.81,7.45-5.52
		c3.48-2.7,6.3-4.36,9.06-4.6C44.02,12.8,36.26,11.87,36.26,11.87z"/>
</g>
</svg>
