<?xml version="1.0" encoding="utf-8"?>
<!-- Generator: Adobe Illustrator 26.0.1, SVG Export Plug-In . SVG Version: 6.00 Build 0)  -->
<svg version="1.1" id="Layer_1" xmlns="http://www.w3.org/2000/svg" xmlns:xlink="http://www.w3.org/1999/xlink" x="0px" y="0px"
	 viewBox="0 0 70.87 70.87" style="enable-background:new 0 0 70.87 70.87;" xml:space="preserve">
<style type="text/css">
	.st0{fill:#F4E1BE;}
	.st1{fill:#FFF6CF;}
	.st2{fill:#D9C09B;}
	.st3{opacity:0.6;fill:#E2C79C;}
	.st4{fill:#A62720;}
	.st5{fill:#BC3C31;}
	.st6{opacity:0.2;fill:#F2B8C3;}
	.st7{fill:#FBE0E8;}
</style>
<g>
	<path class="st0" d="M68.51,26.01C63.32,7.76,44.29-2.81,26.02,2.39C7.75,7.6-2.84,26.61,2.35,44.86
		c5.2,18.25,24.23,28.82,42.5,23.62C63.12,63.27,73.71,44.25,68.51,26.01z"/>
	<path class="st1" d="M67.26,26.36c-5-17.56-23.3-27.73-40.88-22.72C8.8,8.65-1.39,26.94,3.61,44.5c5,17.55,23.31,27.73,40.88,22.72
		C62.07,62.21,72.26,43.92,67.26,26.36z"/>
	<path class="st0" d="M63.66,27.39C59.22,11.82,42.99,2.8,27.4,7.24C11.81,11.68,2.77,27.91,7.21,43.47
		c4.44,15.57,20.67,24.59,36.26,20.15C59.05,59.18,68.09,42.96,63.66,27.39z"/>
	<path class="st2" d="M21.48,50.89c-3.26-14.45,6.6-28.98,22.02-32.46c5.72-1.29,11.4-0.88,16.46,0.89
		C53.11,8.9,40.04,3.64,27.4,7.24C11.81,11.68,2.77,27.91,7.21,43.47c3.06,10.74,11.74,18.36,21.94,20.6
		C25.41,60.62,22.66,56.12,21.48,50.89z"/>
	<path class="st3" d="M68.51,26.01c-1.28-4.49-3.4-8.5-6.13-11.94C80.91,58.09,36.76,84.13,5.29,51.99
		c7.54,13.74,23.83,20.96,39.56,16.48C63.12,63.27,73.71,44.25,68.51,26.01z"/>
	<path class="st4" d="M62.8,28.34C58.58,13.5,43.1,4.9,28.25,9.14C13.39,13.37,4.77,28.83,9,43.67c4.23,14.84,19.7,23.44,34.56,19.2
		C58.42,58.64,67.03,43.18,62.8,28.34z"/>
	<path class="st5" d="M60.84,30.39c-1.38-4.84-3.41-9.13-6.91-12.04c-2.93-2.44-6.31-2.44-10.06-3.23
		c-4.32-0.91-9.08-2.26-13.63-0.59c-4.22,1.54-7.76,4.92-10.62,8.07c-3.33,3.67-5.45,7.62-6.44,12.43
		c-0.74,3.59-0.41,7.45,0.46,11.17c0.69,2.96,2.2,5.09,3.76,7.44c1.71,2.56,3.74,4.38,6.24,6.06c3.14,2.1,6.07,2.17,9.96,2.56
		c2.99,0.3,5.8,0.76,8.95-0.14c5.45-1.55,10.34-3.67,13.76-7.89C61.7,47.58,63.27,38.9,60.84,30.39z"/>
	<path class="st6" d="M29.44,29.21c-0.91,0.66-2.34-1.9,0.8-4.39c3.14-2.49,5.68-6.51,6.18-7.14C36.9,17.07,35.58,24.76,29.44,29.21
		z"/>
	<path class="st6" d="M37.16,33.01c0.94-0.63,2.28,1.98-0.95,4.36c-3.22,2.39-5.9,6.31-6.42,6.92
		C29.28,44.89,30.87,37.24,37.16,33.01z"/>
	<path class="st6" d="M24.45,54.41c-0.08-1.4,10.72-5.75,18.49-12.68c7.92-7.06,12.82-16.68,13.91-16.41
		c2.16,0.53,8.61,19.33-2.27,28.41C45.16,61.61,24.9,62.47,24.45,54.41z"/>
	<path class="st4" d="M34.56,26.42c0,0-12.42,12.52-12.43,12.53c-5.04,6.29,3.14,8.28,0.31,13.39c-0.88,1.58-5.38-6.37-6.36-5.4
		c-2.43,0.9-3.59-0.85-6.43-1.26c3.99,3.67,3.44,6.75,7.91,9.94c1.18,0.51-7.46-9.46,4.25-0.79c5.11,3.78,3.92-5.07,1.97-7.08
		c-5.64-5.82,7.79-14.42,10.81-21.29C34.59,26.43,34.57,26.42,34.56,26.42z"/>
	<path class="st4" d="M39.33,52.88c7.01-3.19,12.3-6.53,13.73-10.26C48.55,46.55,43.92,49.88,39.33,52.88z"/>
	<path class="st4" d="M45.29,13.3c1.06,1.44,1.81,3.08,2.19,4.79c1.28,5.68-2.44,10.88-5.38,17.76c3.72-5.97,11.04-13.9,10.19-17.68
		C51.68,15.47,47.72,14.28,45.29,13.3z"/>
	<g>
		<path class="st4" d="M20.2,32.33c0.02,0.24,0.05,0.48,0.11,0.73C20.26,32.8,20.23,32.56,20.2,32.33z"/>
		<path class="st4" d="M26.85,23.19c-1.17,0.97-2.48,2.19-3.91,4C24.11,26.24,25.51,25.1,26.85,23.19z"/>
		<path class="st4" d="M33.78,11.67c-0.66,0.15-1.45,0.17-2.06,0.3c-0.56,0.13-0.97,0.35-1,0.88c-0.93,5.02-2.36,8.18-3.88,10.34
			c3.17-2.62,5.35-3.47,6.07-9.65C32.95,12.38,34.76,11.45,33.78,11.67z"/>
		<path class="st4" d="M20.2,32.33c-0.05-0.56,0.02-1.11,0.28-1.52c0.85-1.43,1.67-2.61,2.46-3.62
			C21.16,28.63,19.91,29.65,20.2,32.33z"/>
	</g>
	<path class="st7" d="M53.2,54.7c-0.21-0.36-1.15-0.21-2.12,0.34c-0.97,0.54-1.59,1.28-1.38,1.64c0.2,0.36,1.15,0.2,2.12-0.34
		C52.78,55.8,53.4,55.06,53.2,54.7z"/>
	<path class="st7" d="M47.36,57.63c-0.17-0.38-0.78-0.47-1.37-0.21c-0.59,0.26-0.94,0.77-0.77,1.15c0.16,0.37,0.78,0.47,1.37,0.21
		C47.18,58.52,47.52,58,47.36,57.63z"/>
	<path class="st7" d="M58.46,44.65c-0.22-0.19-1.36,1.68-2.55,4.18c-1.19,2.49-1.98,4.67-1.76,4.85c0.22,0.19,2.81-2,4-4.5
		C59.33,46.68,58.68,44.84,58.46,44.65z"/>
</g>
</svg>
