<?xml version="1.0" encoding="utf-8"?>
<!-- Generator: Adobe Illustrator 26.0.1, SVG Export Plug-In . SVG Version: 6.00 Build 0)  -->
<svg version="1.1" id="Layer_1" xmlns="http://www.w3.org/2000/svg" xmlns:xlink="http://www.w3.org/1999/xlink" x="0px" y="0px"
	 viewBox="0 0 70.87 70.87" style="enable-background:new 0 0 70.87 70.87;" xml:space="preserve">
<style type="text/css">
	.st0{fill:#F4E1BE;}
	.st1{fill:#FFF6CF;}
	.st2{fill:#D9C09B;}
	.st3{fill:#DADADA;}
	.st4{fill:#F6F6F6;}
	.st5{opacity:0.2;fill:#FFFAEA;}
	.st6{fill:#EDEDED;}
	.st7{opacity:0.2;}
	.st8{fill:#FFFAEA;}
</style>
<path class="st0" d="M68.22,26.19C63.07,8.1,44.21-2.38,26.1,2.78C7.99,7.94-2.51,26.79,2.64,44.88
	C7.8,62.96,26.65,73.44,44.76,68.28C62.87,63.12,73.38,44.28,68.22,26.19z"/>
<path class="st1" d="M66.98,26.55C62.02,9.14,43.88-0.94,26.45,4.03s-27.53,23.1-22.57,40.5c4.96,17.4,23.1,27.48,40.52,22.52
	C61.83,62.08,71.94,43.95,66.98,26.55z"/>
<path class="st0" d="M63.41,27.56C59.01,12.13,42.92,3.19,27.47,7.59C12.02,11.99,3.06,28.07,7.46,43.51
	c4.4,15.43,20.49,24.37,35.94,19.97C58.85,59.07,67.81,42.99,63.41,27.56z"/>
<path class="st2" d="M21.6,50.86c-3.23-14.32,6.54-28.73,21.84-32.18c5.67-1.28,11.3-0.87,16.31,0.89C52.96,9.23,40,4.02,27.47,7.59
	C12.02,11.99,3.06,28.07,7.46,43.51c3.03,10.65,11.64,18.2,21.75,20.42C25.49,60.5,22.77,56.04,21.6,50.86z"/>
<path class="st3" d="M62.2,27.66C58.01,12.95,42.67,4.43,27.95,8.62C13.23,12.82,4.68,28.15,8.87,42.85
	c4.19,14.71,19.53,23.23,34.26,19.04C57.86,57.69,66.4,42.37,62.2,27.66z"/>
<path class="st4" d="M60.26,29.69c-1.37-4.79-3.39-9.05-6.85-11.93c-2.91-2.42-6.26-2.42-9.97-3.2c-4.28-0.9-9-2.24-13.51-0.59
	c-4.18,1.53-7.69,4.87-10.53,8c-3.29,3.63-5.4,7.55-6.39,12.33c-0.73,3.56-0.4,7.38,0.45,11.07c0.68,2.93,2.18,5.05,3.73,7.37
	c1.69,2.54,3.7,4.34,6.18,6c3.11,2.08,6.01,2.16,9.87,2.54c2.97,0.29,5.75,0.75,8.87-0.14c5.4-1.54,10.24-3.63,13.64-7.82
	C61.12,46.73,62.66,38.12,60.26,29.69z"/>
<path class="st5" d="M23.81,54.09c-0.08-1.38,10.63-5.7,18.33-12.57c7.85-7,12.71-16.53,13.78-16.26
	c2.15,0.53,8.54,19.15-2.25,28.16C44.34,61.22,24.26,62.08,23.81,54.09z"/>
<path class="st6" d="M28.54,49.65c-8.48,1.39-13.46-9.96-14.12-14.02c-1.48-9,17.5-30.11-3.33-3.52c-0.87,1.21-1.58,2.71-1.34,4.21
	c0.06,0.37,0.19,0.75,0.38,1.11c0,0,6.4,15.45,19.67,13.28c5.08-0.83,12.46-4.7,14.99-9.28C41.12,44.16,33.01,48.92,28.54,49.65z"/>
<g>
	<path class="st6" d="M53.32,31.26c-1.38-6.11-10.95-11.52-19.19-9.67c-1.01,0.22-1.98,0.56-2.93,0.95c9-1.98,20.01,5.06,20.88,7.29
		c2.03,5.27-0.45,7.86-0.34,11.21C53.31,38.14,54.04,34.47,53.32,31.26z"/>
	<path class="st6" d="M26.96,24.71c1.36-0.79,2.77-1.56,4.23-2.16c-0.02,0.01-0.04,0.01-0.07,0.01
		C29.61,22.9,28.21,23.69,26.96,24.71z"/>
</g>
<g class="st7">
	<path class="st8" d="M27.16,26.35c-1.19,1.42-2.4,3.12-3.19,4.92C24.9,29.52,26.1,27.87,27.16,26.35z"/>
	<path class="st8" d="M30.67,45.58c0,0-0.02-0.02-0.07-0.06c0,0.01,0,0.01,0,0.01C30.65,45.74,30.75,45.94,30.67,45.58z"/>
	<path class="st8" d="M23.97,31.27c-1.22,2.29-1.98,4.75-1.41,7.3c0.72,3.18,3.05,4.62,6.06,5.37c-1.96-1.72-4.72-4.57-5.38-7.47
		C22.86,34.75,23.23,32.96,23.97,31.27z"/>
	<path class="st8" d="M31.42,44.45c-0.98-0.13-1.91-0.29-2.79-0.51c0.97,0.84,1.74,1.42,1.98,1.59c-0.13-0.65,0.86-0.93,0.83-1.05
		C31.43,44.46,31.42,44.46,31.42,44.45z"/>
</g>
</svg>
